<?xml version="1.0" encoding="UTF-8"?>
<svg version="1.1" xmlns="http://www.w3.org/2000/svg" width="4679" height="1931">
<path d="M0 0 C1544.07 0 3088.14 0 4679 0 C4679 637.23 4679 1274.46 4679 1931 C3134.93 1931 1590.86 1931 0 1931 C0 1293.77 0 656.54 0 0 Z " fill="#FEFEFE" transform="translate(0,0)"/>
<path d="M0 0 C235.9252451 0 235.9252451 0 299.1875 60.875 C304.99737911 66.82751117 310.02070157 73.35254672 315 80 C315.43344727 80.57266602 315.86689453 81.14533203 316.31347656 81.73535156 C323.07407757 90.71019035 328.73967784 100.07936494 334 110 C334.34272949 110.63631348 334.68545898 111.27262695 335.03857422 111.92822266 C349.40508399 138.7424982 357.59410412 168.46851667 361.75 198.5 C361.92329834 199.75139771 361.92329834 199.75139771 362.10009766 201.02807617 C363.98707977 215.70730804 364.24066917 230.41047101 364.25 245.1875 C364.25067474 246.15499176 364.25134949 247.12248352 364.25204468 248.11929321 C364.21621812 280.61733106 359.44413391 311.87888377 350 343 C349.75056641 343.82242187 349.50113281 344.64484375 349.24414062 345.4921875 C340.32592165 374.1955555 325.70176043 400.36628394 306 423 C305.50048828 423.57395508 305.00097656 424.14791016 304.48632812 424.73925781 C299.03792338 430.94378247 293.42455585 436.8002295 287 442 C286.01902344 442.81855469 285.03804687 443.63710938 284.02734375 444.48046875 C204.50351647 509.81282022 95.05495417 491 0 491 C0 328.97 0 166.94 0 0 Z " fill="#FEFEFE" transform="translate(1664,340)"/>
<path d="M0 0 C248.96028881 0 248.96028881 0 277 9 C278.16402344 9.34675781 279.32804687 9.69351562 280.52734375 10.05078125 C316.36430687 21.18051046 345.3054329 44.04218348 363.12988281 77.09521484 C368.46411977 87.32906483 372.40741121 97.7570286 375 109 C375.29414795 110.27230469 375.29414795 110.27230469 375.59423828 111.5703125 C382.11436632 141.16945465 381.57810601 174.43277957 371 203 C370.63132812 204.01835938 370.26265625 205.03671875 369.8828125 206.0859375 C364.93522299 218.81318499 358.02359249 230.75227674 349 241 C348.31421875 241.81726562 347.6284375 242.63453125 346.921875 243.4765625 C328.12024917 265.32161697 302.87365436 276.50867171 276 285 C279.88369921 286.46765208 283.76470906 287.91766065 287.68359375 289.2890625 C302.55993999 294.58324607 316.34429427 301.14402882 328 312 C328.5151416 312.46889648 329.0302832 312.93779297 329.56103516 313.42089844 C350.32117069 332.45050947 360.22912925 356.39007408 366.1875 383.4375 C366.34250977 384.1269873 366.49751953 384.81647461 366.65722656 385.52685547 C370.08665374 402.02770497 370.30167846 418.6245769 370.33552551 435.41076088 C370.34394056 439.45485883 370.36428978 443.49874233 370.38806152 447.54277039 C370.43654454 456.1326429 370.46915523 464.72254876 370.5 473.3125 C370.53332178 482.58408261 370.56970578 491.8556018 370.62413073 501.12708825 C370.65070554 505.7594819 370.66288115 510.39177929 370.67224121 515.02424622 C370.71579198 525.80426611 370.83795339 536.55270478 371.77148438 547.29760742 C371.83188148 548.05496091 371.89227859 548.8123144 371.95450592 549.59261799 C372.77944186 557.72601664 374.96335443 564.8534177 377 573 C362.15 573 347.3 573 332 573 C327.53344907 561.83362267 325.80888318 552.26374317 324.89428711 540.40966797 C324.76796481 538.7896629 324.76796481 538.7896629 324.63909054 537.13693047 C323.8596933 526.36150542 323.70443315 515.61033218 323.69503975 504.81045914 C323.69127399 501.32282375 323.67428297 497.83544817 323.65428162 494.34786987 C323.59981082 484.45217788 323.56832809 474.5564514 323.54370117 464.66064453 C323.52759981 458.54974691 323.49716771 452.43904028 323.45893669 446.32824326 C323.44749929 444.03956033 323.44135826 441.750843 323.44125557 439.4621315 C323.44049957 427.10644688 322.98417366 414.93338088 321.64038086 402.64404297 C321.52175218 401.55753008 321.40312349 400.47101719 321.2809 399.35157967 C318.80075313 378.54349401 313.14332506 357.01731563 299 341 C298.278125 340.01 297.55625 339.02 296.8125 338 C277.60109782 315.56604004 242.84501032 309.62244396 215.15866089 307.42803955 C201.08326581 306.47552317 186.94428021 306.63807157 172.84340668 306.59480286 C168.80762981 306.58064433 164.77193917 306.55606779 160.73620605 306.5324707 C149.01168757 306.46976297 137.28708658 306.42332898 125.5625 306.375 C99.306875 306.25125 73.05125 306.1275 46 306 C46 394.11 46 482.22 46 573 C30.82 573 15.64 573 0 573 C0 383.91 0 194.82 0 0 Z " fill="#020202" transform="translate(2514,1111)"/>
<path d="M0 0 C7.41909419 -0.2540687 14.83706376 -0.42887671 22.25952148 -0.54931641 C24.78273432 -0.59953121 27.30565722 -0.66772018 29.82788086 -0.75439453 C33.46019956 -0.87606826 37.08866809 -0.93248221 40.72265625 -0.9765625 C41.84583755 -1.02817535 42.96901886 -1.07978821 44.12623596 -1.13296509 C51.80923849 -1.13843671 51.80923849 -1.13843671 55.18313599 2.08720398 C56.99681046 4.64864195 58.52371361 7.2326052 60 10 C60.68932617 11.04293213 61.37865234 12.08586426 62.08886719 13.16040039 C62.93433105 14.49059204 62.93433105 14.49059204 63.796875 15.84765625 C64.43987549 16.85634766 65.08287598 17.86503906 65.74536133 18.90429688 C66.73765747 20.46760742 66.73765747 20.46760742 67.75 22.0625 C69.1650402 24.28275886 70.58040563 26.50281047 71.99609375 28.72265625 C72.6804248 29.79660645 73.36475586 30.87055664 74.06982422 31.97705078 C76.63519471 35.99481164 79.21943471 40.00007407 81.8125 44 C82.25021729 44.67554932 82.68793457 45.35109863 83.13891602 46.04711914 C84.4253933 48.03177061 85.71255728 50.0159747 87 52 C93.32616489 61.74899393 99.61671463 71.51975793 105.875 81.3125 C112.37904077 91.48820144 118.9384521 101.62628188 125.53125 111.74462891 C132.36290562 122.23512668 139.13317835 132.76406614 145.875 143.3125 C152.3790858 153.48817292 158.93845184 163.62628148 165.53125 173.74462891 C173.06597455 185.31473951 180.52088476 196.93495827 187.95629883 208.5690918 C192.62706691 215.87120082 197.33574416 223.14735391 202.0703125 230.40820312 C206.37573744 237.01935196 210.62936187 243.66283423 214.875 250.3125 C220.08149617 258.46643418 225.32760055 266.59233382 230.625 274.6875 C236.10417988 283.06109751 241.50565081 291.48043584 246.86499023 299.93115234 C252.34396571 308.56257443 257.91578772 317.13208492 263.49902344 325.69628906 C270.34363186 336.20144928 277.12276045 346.74776602 283.875 357.3125 C290.37623957 367.48371997 296.93261438 377.6174817 303.52246094 387.73144531 C310.68607298 398.73017022 317.77484586 409.77416474 324.81274414 420.85375977 C328.73715179 427.02772551 332.69264128 433.18021764 336.67578125 439.31640625 C340.81126182 445.69343716 344.90638839 452.09603306 349 458.5 C353.48234455 465.51155572 357.97062085 472.51872386 362.5 479.5 C367.15115212 486.67075075 371.76668552 493.86417222 376.375 501.0625 C377.05369141 502.12210938 377.73238281 503.18171875 378.43164062 504.2734375 C381.98629565 509.82957157 385.51686408 515.39874088 389 521 C389.08555715 512.0930842 388.83179946 503.2506599 388.35404968 494.35768127 C388.21514622 491.60988462 388.08091873 488.86186973 387.9477129 486.11379147 C387.89514212 485.02928738 387.89514212 485.02928738 387.84150931 483.92287412 C385.59054562 437.03777047 385.60046818 390.17939992 385.68938668 343.2503753 C385.71137432 331.31456614 385.71538384 319.37876706 385.7187738 307.44294054 C385.72526141 286.1755652 385.74500762 264.90822533 385.77368164 243.64086914 C385.80142563 223.04126151 385.82255811 202.44166368 385.83520508 181.84204102 C385.83599325 180.56187675 385.83678142 179.28171249 385.83759347 177.96275537 C385.84150996 171.53744075 385.84530076 165.11212606 385.84902918 158.68681133 C385.87988419 105.79118311 385.93250279 52.89559332 386 0 C394.54459906 -0.41908633 403.08484506 -0.73779784 411.6372118 -0.93261909 C415.61008279 -1.02619115 419.57588161 -1.15271259 423.54467773 -1.35791016 C449.16263741 -2.64848167 449.16263741 -2.64848167 455.47909546 1.71102905 C459.2766598 5.85994531 461.33676809 10.48060939 463.13806725 15.75563622 C464.48159455 19.25401125 466.51030663 22.02297286 468.6875 25.0625 C469.1314209 25.72169434 469.5753418 26.38088867 470.03271484 27.06005859 C470.40090332 27.60484863 470.7690918 28.14963867 471.1484375 28.7109375 C474.7894304 34.14734387 478.2935572 39.67166716 481.8125 45.1875 C486.78349433 52.97749005 491.76966067 60.75629136 496.8125 68.5 C497.61010742 69.72493164 497.61010742 69.72493164 498.42382812 70.97460938 C499.45950509 72.56470078 500.49530853 74.15470981 501.53125 75.74462891 C508.36290594 86.23512718 515.13313144 96.76409568 521.875 107.3125 C529.38702503 119.06407223 536.97467079 130.76472643 544.59570312 142.44580078 C551.33821118 152.78281115 558.01876733 163.15529672 564.62866211 173.57763672 C569.48711772 181.22489545 574.43241467 188.81321359 579.39404297 196.39379883 C583.6454161 202.89845471 587.84022166 209.43644181 592 216 C598.11686093 225.65079634 604.34480587 235.2259761 610.59765625 244.7890625 C614.04191381 250.05808601 617.45135127 255.34843085 620.84765625 260.6484375 C622.83087705 263.73664702 624.82507955 266.81738069 626.82275391 269.89624023 C631.54598391 277.17711197 636.22377725 284.48541548 640.875 291.8125 C647.01653884 301.48424777 653.24219449 311.09885076 659.49902344 320.69628906 C667.09071195 332.34807384 674.59859062 344.0528064 682.09033203 355.76904297 C688.70614695 366.11185608 695.36516858 376.42582253 702.0703125 386.7109375 C708.36231629 396.36645281 714.59459698 406.05654974 720.76879883 415.7878418 C724.64098694 421.88389636 728.55406853 427.95145248 732.5 434 C737.69637805 441.96571951 742.81742946 449.97706112 747.91455078 458.0065918 C751.37694445 463.45800989 754.85915533 468.89541151 758.375 474.3125 C768.40543797 489.77522495 778.4316832 505.24584075 788 521 C788.0506937 512.613351 787.92102367 504.25725207 787.58433533 495.87771606 C787.49570297 493.52372347 787.40768905 491.16970753 787.32020664 488.81567192 C787.27411829 487.58345901 787.22802994 486.3512461 787.18054497 485.08169341 C786.01429554 453.36235236 785.57991684 421.65098987 785.41395761 389.91178773 C785.38664578 384.70067013 785.35557397 379.48958469 785.32266426 374.2784996 C784.87334552 302.68131338 784.87971632 231.0835196 784.92797148 159.48523593 C784.93608988 147.30249497 784.94142816 135.11975481 784.94506836 122.93701172 C784.94533108 122.06029781 784.94559381 121.1835839 784.94586449 120.2803029 C784.94717092 115.87560719 784.9484343 111.47091148 784.94967639 107.06621575 C784.95979461 71.37747262 784.97747446 35.68873734 785 0 C800.18 0 815.36 0 831 0 C831 190.08 831 380.16 831 576 C810.54 576 790.08 576 769 576 C760.16981866 562.20284166 751.34451432 548.40458205 742.5546875 534.58203125 C736.73285583 525.43367055 730.88066891 516.30470036 725.03222656 507.17333984 C721.68695051 501.94966156 718.34356187 496.72477559 715 491.5 C713.66667591 489.41666075 712.33334257 487.33332742 711 485.25 C687 447.74999999 687 447.74999999 684.9987793 444.62304688 C683.66957043 442.54618846 682.34030638 440.46936537 681.01098633 438.39257812 C677.61408814 433.08547128 674.21824233 427.77769576 670.82421875 422.46875 C662.12985902 408.87115859 662.12985902 408.87115859 653.375 395.3125 C649.32039251 389.06297406 645.30839988 382.78721616 641.3125 376.5 C631.39595665 360.89729618 621.47159337 345.29951626 611.375 329.8125 C603.89619011 318.33961382 596.5655308 306.77346223 589.22949219 295.20898438 C582.46317314 284.54577369 575.65883487 273.91097618 568.75805664 263.33422852 C564.56896877 256.90278786 560.46066402 250.42315064 556.37402344 243.92626953 C552.72353679 238.12850848 549.0169869 232.36959131 545.28466797 226.62426758 C541.48768811 220.77188661 537.73980225 214.88904991 534 209 C529.86044225 202.48212491 525.70495916 195.97588666 521.5 189.5 C517.29504011 183.02411222 513.13966579 176.51780735 509 170 C502.60863267 159.93885694 496.14920339 149.92371973 489.65429688 139.92919922 C483.86362463 131.01614651 478.13549465 122.0676333 472.47192383 113.07324219 C468.83207399 107.29956621 465.14310341 101.5599557 461.42578125 95.8359375 C457.25526832 89.40885808 453.12623387 82.95557503 449 76.5 C442.70000837 66.64488519 436.36934991 56.81041818 430 47 C429.94557064 55.760492 430.08832758 64.48081321 430.46522522 73.2323761 C431.17861761 91.58575404 431.34319353 109.94559866 431.52658565 128.31055583 C431.55693172 131.33533261 431.58841393 134.36009604 431.62006271 137.38485944 C432.0712054 180.94951619 432.13440107 224.51206324 432.10353873 268.07866066 C432.09613142 278.82969778 432.09486609 289.58073376 432.09374207 300.33177307 C432.09159135 319.48054304 432.08504378 338.62930858 432.07543945 357.77807617 C432.06615917 376.30086242 432.05913142 394.82364743 432.05493164 413.34643555 C432.05453756 415.0795805 432.05453756 415.0795805 432.05413551 416.84773848 C432.0528298 422.64827762 432.05156626 428.44881676 432.05032361 434.24935591 C432.04007594 481.832907 432.02257161 529.41645326 432 577 C424.10741458 577.419339 416.21955401 577.73790225 408.31854534 577.93261909 C404.64803074 578.02615022 400.98518604 578.15255379 397.3190918 578.35791016 C373.64473401 579.6502712 373.64473401 579.6502712 367.60686302 575.25982857 C363.86141187 571.05089822 361.67492231 566.36301284 359.79200363 561.09445095 C358.76635298 558.38212124 357.30598681 556.1122895 355.64453125 553.74609375 C355.1757959 553.03042236 354.70706055 552.31475098 354.22412109 551.57739258 C353.75828613 550.87122803 353.29245117 550.16506348 352.8125 549.4375 C347.78571738 541.75918549 342.81516439 534.04683022 337.875 526.3125 C333.43472373 519.36316171 328.98890348 512.41804153 324.5 505.5 C319.97049024 498.51880871 315.48241678 491.51150835 311 484.5 C304.26908896 473.97246768 297.50019745 463.47055109 290.6953125 452.99072266 C284.47440097 443.40858637 278.31327839 433.79037738 272.18774414 424.14697266 C268.26172745 417.97055398 264.30481038 411.81549073 260.31982422 405.67700195 C256.22643472 399.36531192 252.17540845 393.02683354 248.125 386.6875 C243.27949151 379.10552384 238.41437546 371.53752709 233.5 364 C227.88430062 355.38680255 222.33719433 346.73073633 216.80078125 338.06640625 C213.05099125 332.19968278 209.2899508 326.34085561 205.5 320.5 C200.26392296 312.42979872 195.08392381 304.3240149 189.90234375 296.21875 C185.69365632 289.6381837 181.4660021 283.07061599 177.21386719 276.51806641 C173.19760697 270.32176236 169.22459699 264.09808328 165.25 257.875 C160.04145108 249.72248865 154.79629928 241.59577176 149.5 233.5 C143.50982014 224.34358221 137.59281793 215.14229723 131.70361328 205.9206543 C127.94669727 200.03856294 124.17562993 194.16643335 120.375 188.3125 C116.25289086 181.96190952 112.18264317 175.57945016 108.125 169.1875 C103.14549937 161.34498937 98.11486964 153.53841842 93.04003906 145.75732422 C87.9146369 137.88981644 82.8571109 129.97946494 77.80126953 122.06713867 C74.05129529 116.20018523 70.29013752 110.34108399 66.5 104.5 C62.01106359 97.58197805 57.56547233 90.63671375 53.125 83.6875 C48.27945803 76.10554501 43.41437566 68.5375274 38.5 61 C32.8920704 52.39871961 27.35044591 43.75599942 21.82495117 35.1015625 C18.80474387 30.37319615 15.77964628 25.64883433 12.71484375 20.94921875 C11.97161865 19.80876099 11.97161865 19.80876099 11.21337891 18.64526367 C10.32380469 17.28299657 9.4318291 15.92229221 8.53662109 14.5637207 C6.33956473 11.19867106 4.29589624 7.78723077 2.35424805 4.26757812 C1.91122849 3.46582153 1.46820892 2.66406494 1.01176453 1.8380127 C0.67788223 1.23146851 0.34399994 0.62492432 0 0 Z " fill="#010101" transform="translate(418,299)"/>
<path d="M0 0 C1.40897804 0.00333092 1.40897804 0.00333092 2.84642029 0.00672913 C3.90744461 0.00680466 4.96846893 0.00688019 6.06164551 0.00695801 C7.21579453 0.01211929 8.36994354 0.01728058 9.55906677 0.02259827 C10.73404221 0.02401321 11.90901764 0.02542816 13.11959839 0.02688599 C16.88981116 0.0325046 20.65996556 0.04506026 24.43016052 0.05775452 C26.97898779 0.06276712 29.52781599 0.06733044 32.0766449 0.07142639 C38.34033685 0.08248007 44.60399452 0.0992363 50.86766052 0.12025452 C64.54246305 35.19521433 78.04336241 70.33578583 91.50047302 105.49476624 C95.88736852 116.95553219 100.2785406 128.41457393 104.70091248 139.86170959 C106.73437012 145.13476571 108.73240083 150.42029761 110.71141052 155.71400452 C113.65988872 163.59676379 116.67286838 171.45383109 119.70121765 179.30619812 C121.33400386 183.54040479 122.96407555 187.77565639 124.59422302 192.01087952 C125.11041702 193.35186455 125.11041702 193.35186455 125.63703918 194.71994019 C132.40135992 212.29792124 139.12659141 229.89093872 145.8578949 247.48158264 C146.79592573 249.93280055 147.73410403 252.38396195 148.67234802 254.83509827 C153.69020029 267.94455907 158.70298425 281.0559167 163.69578552 294.17494202 C170.12015719 311.05538234 176.54913133 327.93395181 183.02690125 344.79399109 C183.65821662 346.43723442 184.28921161 348.08060088 184.91984558 349.72410583 C187.93570834 357.58184599 190.97624492 365.42660626 194.12156677 373.23353577 C196.10249192 378.16326373 197.97275152 383.0901734 199.68016052 388.12025452 C202.24660577 395.52874353 205.06122759 402.82338057 207.93748474 410.11634827 C211.60860475 419.43249965 215.21372404 428.77317223 218.80516052 438.12025452 C219.27869461 439.35251266 219.27869461 439.35251266 219.76179504 440.60966492 C221.7807012 445.86427315 223.79794635 451.11951758 225.81437683 456.37507629 C226.87572902 459.14128348 227.93736132 461.90738307 228.99900818 464.67347717 C237.74128158 487.45453337 246.44939896 510.2484298 255.11766052 533.05775452 C255.51594055 534.10557098 255.91422058 535.15338745 256.3245697 536.23295593 C258.51668834 542.00118874 260.70524878 547.77075073 262.88987732 553.54182434 C263.83802598 556.04210775 264.7908931 558.54054917 265.74461365 561.03871155 C266.30138398 562.50464536 266.85803314 563.97062521 267.41453552 565.43666077 C267.66721191 566.09472214 267.91988831 566.75278351 268.18022156 567.43078613 C269.86766052 571.89303838 269.86766052 571.89303838 269.86766052 574.12025452 C254.02766052 574.12025452 238.18766052 574.12025452 221.86766052 574.12025452 C215.03140954 559.30837739 215.03140954 559.30837739 212.46531677 551.57728577 C211.87474926 549.8470436 211.28240903 548.11740567 210.6884613 546.38832092 C210.38982178 545.51741821 210.09118225 544.6465155 209.78349304 543.7492218 C207.39879466 536.90376273 204.81485506 530.12911377 202.26048279 523.34559631 C201.29913767 520.79175464 200.34196596 518.23637612 199.38523865 515.68080139 C196.5270033 508.06308134 193.63344812 500.46544633 190.58641052 492.92103577 C188.54614617 487.86100339 186.65374436 482.79469679 184.93016052 477.62025452 C181.39073607 467.26643308 177.43625553 457.07485208 173.49266052 446.87025452 C173.16191528 446.01419617 172.83117004 445.15813782 172.49040222 444.27613831 C171.82674702 442.55858065 171.16307127 440.84103093 170.49937439 439.12348938 C170.17618225 438.28710938 169.85299011 437.45072937 169.52000427 436.58900452 C169.04005005 435.34724457 169.04005005 435.34724457 168.55039978 434.08039856 C161.11878511 414.8371535 154.03207956 395.46418592 146.86766052 376.12025452 C67.33766052 376.12025452 -12.19233948 376.12025452 -94.13233948 376.12025452 C-98.42233948 387.67025452 -102.71233948 399.22025452 -107.13233948 411.12025452 C-109.11233948 416.40025452 -111.09233948 421.68025452 -113.13233948 427.12025452 C-114.47252228 430.76387651 -115.80860188 434.40822345 -117.13233948 438.05775452 C-117.47353821 438.99611145 -117.81473694 439.93446838 -118.16627502 440.90126038 C-119.8958459 445.66864126 -121.60181686 450.44269661 -123.26661682 455.23304749 C-126.0346071 463.19027223 -128.9984629 471.0635945 -132.00733948 478.93275452 C-136.86850799 491.65622348 -141.55335777 504.44013211 -146.19483948 517.24525452 C-146.53814301 518.19232269 -146.88144653 519.13939087 -147.2351532 520.11515808 C-147.57642242 521.05664703 -147.91769165 521.99813599 -148.26930237 522.96815491 C-148.94756485 524.83918234 -149.62586837 526.7101949 -150.30421448 528.58119202 C-150.63376633 529.4901976 -150.96331818 530.39920319 -151.30285645 531.33575439 C-156.48962268 545.6305214 -161.79294156 559.88186007 -167.13233948 574.12025452 C-181.98233948 574.12025452 -196.83233948 574.12025452 -212.13233948 574.12025452 C-211.44394247 569.98987247 -210.84387427 566.92327541 -209.45265198 563.12025452 C-209.10613586 562.16522034 -208.75961975 561.21018616 -208.40260315 560.22621155 C-208.02466614 559.20124573 -207.64672913 558.17627991 -207.25733948 557.12025452 C-206.86457825 556.04243713 -206.47181702 554.96461975 -206.06715393 553.85414124 C-204.7609271 550.27418765 -203.44687097 546.69716636 -202.13233948 543.12025452 C-201.16414075 540.47730004 -200.19714875 537.8339043 -199.22999573 535.19056702 C-197.36119402 530.08507461 -195.4884574 524.98104777 -193.61280823 519.87806702 C-192.10278006 515.76874406 -190.59857557 511.65745815 -189.10499573 507.54212952 C-186.88691356 501.4347232 -184.63777871 495.33895149 -182.38233948 489.24525452 C-181.94623352 488.06632629 -181.51012756 486.88739807 -181.06080627 485.67274475 C-178.39900127 478.49223082 -175.69296706 471.33060714 -172.94483948 464.18275452 C-169.72127415 455.78791856 -166.70471783 447.33192154 -163.77296448 438.83119202 C-160.58017089 429.60442763 -157.15507438 420.4604776 -153.75733948 411.30775452 C-141.28511826 377.66810745 -128.93446193 343.98370588 -116.60902405 310.29005432 C-115.63479737 307.62697326 -114.66044535 304.96393809 -113.68605042 302.30091858 C-113.04705154 300.55449985 -112.40805413 298.80808058 -111.76905823 297.06166077 C-111.45675262 296.20813019 -111.14444702 295.35459961 -110.82267761 294.47520447 C-109.16618775 289.94759637 -107.51085523 285.41956885 -105.85710144 280.89096069 C-102.00020801 270.3311106 -98.14112662 259.77258874 -94.17530823 249.25306702 C-93.92512939 248.58942642 -93.67495056 247.92578583 -93.41719055 247.24203491 C-92.90919626 245.89480283 -92.40118025 244.54757893 -91.8931427 243.20036316 C-91.64207764 242.53455231 -91.39101257 241.86874146 -91.13233948 241.18275452 C-90.8841748 240.52475861 -90.63601013 239.8667627 -90.38032532 239.18882751 C-85.15445786 225.31703231 -80.19079305 211.35667686 -75.29225159 197.36634827 C-74.20238331 194.31627699 -73.07692761 191.28286178 -71.93490601 188.25209045 C-70.49653123 184.43137413 -69.07809338 180.60322129 -67.65577698 176.77650452 C-66.98253305 174.96603362 -66.30927402 173.15556833 -65.63600159 171.34510803 C-64.56358171 168.46101414 -63.49122115 165.57689823 -62.41899109 162.69273376 C-58.68078205 152.63828007 -54.93900831 142.58550254 -51.15162659 132.54945374 C-48.03373611 124.28714952 -45.01873121 116.00258368 -42.13697815 107.65516663 C-39.00387903 98.64193836 -35.68806495 89.69621285 -32.38233948 80.74525452 C-31.92552795 79.50832855 -31.92552795 79.50832855 -31.45948792 78.24641418 C-30.23060597 74.91962507 -29.00141244 71.59295136 -27.77171326 68.26646423 C-24.98342152 60.72235476 -22.2116427 53.17226658 -19.44483948 45.62025452 C-18.79297668 43.84316101 -18.79297668 43.84316101 -18.12794495 42.03016663 C-16.02114838 36.28489242 -13.91905892 30.53795861 -11.8269043 24.78733826 C-10.80249005 21.97249572 -9.77603339 19.15840007 -8.74937439 16.34437561 C-8.2579644 14.99563051 -7.76757343 13.64651366 -7.27824402 12.29701233 C-6.60449218 10.43901218 -5.92710399 8.58233186 -5.24952698 6.72572327 C-4.67114075 5.13473816 -4.67114075 5.13473816 -4.08106995 3.51161194 C-2.74941284 0.15505473 -2.74941284 0.15505473 0 0 Z " fill="#010101" transform="translate(3193.132339477539,1110.8797454833984)"/>
<path d="M0 0 C17.82 0 35.64 0 54 0 C55.98 5.28 57.96 10.56 60 16 C61.06978765 18.82551351 62.14065558 21.65034188 63.21875 24.47265625 C63.61749329 25.51733315 63.61749329 25.51733315 64.02429199 26.58311462 C64.57501253 28.02531859 65.12599397 29.46742296 65.67724609 30.90942383 C66.500882 33.06480811 67.32272475 35.22087078 68.14453125 37.37695312 C70.78398431 44.28969649 73.4600864 51.18388828 76.2265625 58.046875 C78.24203145 63.0600728 80.13918268 68.07169057 81.875 73.1875 C83.92462145 79.11193351 86.13852661 84.94325865 88.5 90.75 C92.34100141 100.21393995 95.96156891 109.75544093 99.5625 119.3125 C104.66583985 132.84982824 109.80797321 146.37142013 115 159.875 C115.30906281 160.67998932 115.61812561 161.48497864 115.93655396 162.31436157 C118.98962365 170.26466646 122.06678623 178.20236131 125.25 186.1015625 C127.54437382 191.81087137 129.66215594 197.5442759 131.6328125 203.37109375 C133.44815623 208.63976377 135.50296369 213.80328337 137.58552551 218.97055054 C140.54324312 226.32096779 143.36685609 233.72114255 146.1875 241.125 C146.75554067 242.61330971 147.32365736 244.10159041 147.8918457 245.58984375 C151.95870672 256.24699381 156.00298093 266.91265698 160.04345703 277.57983398 C164.65159222 289.73687747 169.32243421 301.86953747 174 314 C179.09634734 327.21650044 184.17413486 340.43926766 189.1875 353.6875 C193.50653176 365.09694868 197.86785864 376.48965484 202.25 387.875 C202.567341 388.69957703 202.88468201 389.52415405 203.2116394 390.37371826 C206.08171937 397.83051417 208.95364528 405.28659822 211.828125 412.74169922 C219.84957701 433.54589514 227.81077262 454.37204232 235.72137451 475.21865845 C241.0746737 489.32457095 246.45263219 503.42049277 251.875 517.5 C252.47863503 519.06867026 253.08223248 520.63735499 253.68579102 522.20605469 C256.40511236 529.27180218 259.12902264 536.33572275 261.86315918 543.39575195 C263.09801014 546.58716726 264.32887817 549.78010904 265.55889893 552.97338867 C266.13887865 554.47621908 266.72067032 555.97835163 267.30438232 557.47973633 C268.10200366 559.53164264 268.89349755 561.58581173 269.68359375 563.640625 C270.13275146 564.80110352 270.58190918 565.96158203 271.04467773 567.15722656 C272 570 272 570 272 573 C256.16 573 240.32 573 224 573 C220.60616536 564.85479688 217.28659834 556.73102544 214.125 548.5 C213.69082764 547.37142578 213.25665527 546.24285156 212.80932617 545.08007812 C209.89035575 537.4457648 207.12757199 529.77078049 204.46655273 522.04345703 C202.14878443 515.34195067 199.62125233 508.73898711 197.01904297 502.14355469 C189.33973221 482.62187173 181.95429685 462.98707698 174.59594727 443.34277344 C173.57643495 440.62104474 172.55593436 437.8996903 171.53442383 435.17871094 C166.15107585 420.83914738 160.78685614 406.4923413 155.48843193 392.12114716 C154.99680881 390.78882488 154.50412296 389.45689423 154.01033211 388.12537384 C153.33111939 386.29275892 152.65652695 384.45843356 151.98217773 382.62402344 C151.40608009 381.06237457 151.40608009 381.06237457 150.81834412 379.46917725 C150 377 150 377 150 375 C70.14 375 -9.72 375 -92 375 C-92.33 376.65 -92.66 378.3 -93 380 C-93.71718835 382.13980219 -94.473926 384.26653405 -95.2578125 386.3828125 C-95.59335144 387.29343697 -95.59335144 387.29343697 -95.93566895 388.22245789 C-96.66201684 390.19125862 -97.39349811 392.15810911 -98.125 394.125 C-98.63105667 395.49425175 -99.1367509 396.8636375 -99.64208984 398.2331543 C-101.09084265 402.15688167 -102.54522521 406.07850152 -104 410 C-105.21006705 413.27019505 -106.41810869 416.54113179 -107.625 419.8125 C-108.03081299 420.91029785 -108.03081299 420.91029785 -108.44482422 422.03027344 C-109.99825404 426.24293346 -111.52781273 430.46342143 -113.0390625 434.69140625 C-117.5905615 447.4245967 -122.26882874 460.10111669 -127.10644531 472.72802734 C-129.7431448 479.62318245 -132.28603144 486.5438832 -134.75390625 493.5012207 C-136.83664712 499.34913595 -138.98313654 505.17353502 -141.125 511 C-141.59991199 512.29311004 -142.0747641 513.58624206 -142.54956055 514.87939453 C-143.28675033 516.8871762 -144.02398628 518.89494077 -144.76145935 520.90261841 C-146.49371193 525.61887894 -148.22240044 530.33643479 -149.94921875 535.0546875 C-152.62739645 542.37178521 -155.31054514 549.68703787 -158 557 C-158.34498535 557.93827637 -158.6899707 558.87655273 -159.04541016 559.84326172 C-159.90180878 562.16764556 -160.76216393 564.49049963 -161.625 566.8125 C-162.07101562 568.01519531 -162.51703125 569.21789063 -162.9765625 570.45703125 C-164 573 -164 573 -165 574 C-166.41225046 574.0928726 -167.82908934 574.11746772 -169.24438477 574.11352539 C-170.14524307 574.11344986 -171.04610138 574.11337433 -171.97425842 574.11329651 C-172.95341721 574.10813522 -173.93257599 574.10297394 -174.94140625 574.09765625 C-175.93881332 574.0962413 -176.9362204 574.09482635 -177.96385193 574.09336853 C-181.16343124 574.08775114 -184.36294169 574.07519571 -187.5625 574.0625 C-189.72591045 574.05748724 -191.88932199 574.05292395 -194.05273438 574.04882812 C-199.36851325 574.03777607 -204.68425171 574.02102104 -210 574 C-208.30814019 568.22448502 -206.53839416 562.51331017 -204.46875 556.859375 C-204.1201593 555.90337151 -204.1201593 555.90337151 -203.76452637 554.92805481 C-203.01246152 552.86767545 -202.25633699 550.80881451 -201.5 548.75 C-200.96982602 547.30078255 -200.43988186 545.85148101 -199.91015625 544.40209961 C-198.81932423 541.41900169 -197.72674111 538.43655355 -196.6328125 535.45458984 C-195.30552284 531.83561464 -193.98286044 528.21497483 -192.66247559 524.59347534 C-191.67718089 521.89131061 -190.69045059 519.18967166 -189.70336914 516.48815918 C-189.01967779 514.61637315 -188.33697268 512.74422697 -187.65429688 510.87207031 C-185.48870681 504.95885224 -183.25128167 499.08914259 -180.88964844 493.25170898 C-179.52150477 489.78892385 -178.32496269 486.273812 -177.125 482.75 C-173.63817233 472.65728388 -169.94976596 462.64102695 -166.25 452.625 C-165.79386826 451.38997742 -165.79386826 451.38997742 -165.32852173 450.13000488 C-164.09914812 446.80186595 -162.86949162 443.47383183 -161.63929749 440.14599609 C-158.85102509 432.60196113 -156.07903075 425.05203071 -153.3125 417.5 C-152.86849854 416.28844238 -152.42449707 415.07688477 -151.96704102 413.82861328 C-150.64441966 410.21917596 -149.32214776 406.60961083 -148 403 C-141.71531069 385.84209728 -135.41525524 368.69001893 -129.09506226 351.54516602 C-125.22029991 341.03366013 -121.35330059 330.51939628 -117.5 320 C-113.34673358 308.66170592 -109.17647664 297.32976026 -105 286 C-96.46547973 262.8459525 -87.97755677 239.67495362 -79.5 216.5 C-67.6652366 184.14750739 -67.6652366 184.14750739 -61.7545166 168.05456543 C-60.93604559 165.82585072 -60.11792915 163.597006 -59.29980469 161.36816406 C-57.47240985 156.39064797 -55.6431679 151.41381321 -53.8125 146.4375 C-53.36025055 145.20808182 -53.36025055 145.20808182 -52.89886475 143.9538269 C-49.50746123 134.73970049 -46.08926175 125.53838547 -42.5625 116.375 C-40.22713798 110.30437714 -37.99652873 104.21106426 -35.875 98.0625 C-32.60589905 88.59855795 -29.15692372 79.20433278 -25.6875 69.8125 C-25.39798462 69.02873993 -25.10846924 68.24497986 -24.81018066 67.43746948 C-23.57582139 64.09640671 -22.3412939 60.7554062 -21.10641479 57.41453552 C-16.7623121 45.65759893 -12.44521914 33.89072828 -8.125 22.125 C-4.103125 11.173125 -4.103125 11.173125 0 0 Z " fill="#010101" transform="translate(1180,1111)"/>
<path d="M0 0 C21.78 0 43.56 0 66 0 C73.07952733 10.89158051 80.15617157 21.78396555 87.2109375 32.69140625 C95.63606054 45.71123672 104.10741276 58.70068912 112.59783936 71.67800903 C117.32516429 78.90390476 122.04548206 86.13423345 126.75 93.375 C127.27440674 94.18187256 127.79881348 94.98874512 128.33911133 95.82006836 C130.91659 99.78742287 133.4902515 103.75719334 136.05859375 107.73046875 C142.74173694 118.05695889 149.53444468 128.3057314 156.37704468 138.52688599 C161.06777561 145.53866583 165.67965522 152.58208552 170.08789062 159.77514648 C175.00843507 167.73761494 180.27626365 175.47871177 185.49414062 183.24804688 C189.52975385 189.26158111 193.50149444 195.3072033 197.37133789 201.42895508 C199.92127247 205.45434274 202.52364431 209.44522706 205.125 213.4375 C206.26042498 215.18228625 207.3958414 216.92707808 208.53125 218.671875 C209.39169922 219.99348633 209.39169922 219.99348633 210.26953125 221.34179688 C218.41696496 233.85721142 226.54924876 246.38232962 234.65722656 258.92333984 C236.93723929 262.44948316 239.21870206 265.97468809 241.5 269.5 C242.41667341 270.9166623 243.33334008 272.33332897 244.25 273.75 C244.930625 274.801875 244.930625 274.801875 245.625 275.875 C271.75000001 316.25000001 271.75000001 316.25000001 273.12451172 318.37426758 C274.042779 319.79339311 274.96107335 321.21250114 275.87939453 322.6315918 C278.14679201 326.13549597 280.41374501 329.63968595 282.6796875 333.14453125 C288.16231244 341.62347448 293.65852299 350.09346131 299.16357422 358.55786133 C303.06171832 364.55283065 306.94944318 370.55444666 310.83154297 376.55981445 C314.41982659 382.10859276 318.02152245 387.64858023 321.625 393.1875 C344.09511806 427.74236003 366.22400171 462.54940598 387.64111328 497.76757812 C390.15065548 501.89033305 392.6698453 506.00719614 395.1875 510.125 C396.11852732 511.64841444 397.04952061 513.17184968 397.98046875 514.6953125 C398.64691406 515.78585937 399.31335938 516.87640625 400 518 C399.87959978 513.85402328 399.75312835 509.70824375 399.625 505.5625 C399.5844716 504.2492331 399.54394319 502.93596619 399.50218666 501.58290333 C399.23127209 493.07798506 398.90240756 484.57777108 398.5094471 476.07759953 C397.27639338 449.13064902 396.71113388 422.25628175 396.76786876 395.28295505 C396.77675581 389.94293551 396.77356589 384.60291856 396.77206421 379.26289368 C396.77103079 370.07638799 396.77714221 360.88991138 396.78853989 351.70341301 C396.80500667 338.42235401 396.81002415 325.14130863 396.81251587 311.86024053 C396.81686038 290.29671169 396.83007988 268.73319825 396.84912109 247.16967773 C396.86756496 226.26049881 396.88167944 205.35132412 396.89013672 184.44213867 C396.89066217 183.14670806 396.89118761 181.85127745 396.89172898 180.51659136 C396.89433963 174.01582927 396.89686691 167.51506714 396.89935279 161.014305 C396.91998392 107.3428588 396.95568144 53.67143143 397 0 C411.85 0 426.7 0 442 0 C442 189.09 442 378.18 442 573 C421.87 573 401.74 573 381 573 C368.40364463 553.53290534 368.40364463 553.53290534 363.1875 545.3125 C362.31557007 543.94085693 362.31557007 543.94085693 361.42602539 542.54150391 C359.0226709 538.76060515 356.62097097 534.9786598 354.22070312 531.19580078 C347.50265487 520.60837942 340.74936202 510.04731439 333.89868164 499.54516602 C329.2446594 492.40071598 324.66640603 485.20939556 320.09643555 478.01098633 C314.78036304 469.64167882 309.39957424 461.31558683 304 453 C296.92581687 442.10025823 289.90264408 431.1688384 282.90356445 420.22070312 C279.11886585 414.3029902 275.32332286 408.3928279 271.5 402.5 C266.26539813 394.43198978 261.08657922 386.32858492 255.90673828 378.2253418 C252.08069321 372.2426581 248.24142441 366.26915799 244.375 360.3125 C238.4537328 351.18531657 232.62267785 342.00105302 226.78955078 332.81738281 C216.90860069 317.26128949 206.99385583 301.72713962 197.05419922 286.20849609 C194.97364293 282.95883234 192.89477861 279.70809214 190.81640625 276.45703125 C184.5958049 266.72801074 178.36734938 257.00491837 172.08081055 247.31835938 C168.3538076 241.56673429 164.67473627 235.785123 161 230 C155.05001571 220.63379149 149.04369297 211.30593914 143 202 C136.34401567 191.75126873 129.7439578 181.46925104 123.19213867 171.15356445 C119.65329723 165.58575501 116.09268559 160.03320196 112.5 154.5 C106.54156783 145.31990215 100.67468718 136.08210074 94.80712891 126.84375 C93.01251801 124.01969871 91.21567158 121.19708392 89.41796875 118.375 C83.93007076 109.75956592 78.45006935 101.13942304 73 92.5 C59.23547418 70.59716081 59.23547418 70.59716081 45 49 C44.34 48.01 43.68 47.02 43 46 C43.06058594 47.23363281 43.12117188 48.46726562 43.18359375 49.73828125 C44.84717722 85.43397915 45.15154296 121.15220861 45.11606562 156.880597 C45.11164703 162.4947539 45.11321541 168.10891008 45.1139679 173.72306824 C45.11448608 183.39422068 45.11141421 193.06536624 45.10573006 202.73651695 C45.09751772 216.71847077 45.09499 230.70042135 45.09374207 244.68237732 C45.09156662 267.38062023 45.0849567 290.07885888 45.07543945 312.77709961 C45.06621856 334.79435202 45.05915295 356.81160346 45.05493164 378.82885742 C45.05473435 379.85127256 45.05473435 379.85127256 45.05453308 380.89434256 C45.05321428 387.74088286 45.05193851 394.58742318 45.05069422 401.4339635 C45.04029675 458.62264498 45.02240766 515.81132205 45 573 C30.15 573 15.3 573 0 573 C0 383.91 0 194.82 0 0 Z " fill="#000000" transform="translate(424,1111)"/>
<path d="M0 0 C251.66744951 0 251.66744951 0 300 20 C301.17973389 20.48557373 301.17973389 20.48557373 302.38330078 20.98095703 C339.52569262 36.43665509 374.68134716 61.6591318 399 94 C399.48001465 94.63067383 399.9600293 95.26134766 400.45458984 95.91113281 C430.24667804 135.23705556 446.39525571 180.6080065 454 229 C454.16806152 230.03463379 454.33612305 231.06926758 454.50927734 232.13525391 C461.71589707 278.16053615 458.34707798 329.16555333 446 374 C445.78182617 374.82169678 445.56365234 375.64339355 445.33886719 376.48999023 C436.78027898 408.51631847 423.49763856 440.0315326 404 467 C403.26265625 468.02996094 402.5253125 469.05992187 401.765625 470.12109375 C387.63675451 489.38545795 371.03909603 507.78488199 351.61376953 521.82617188 C350.00269658 522.99803856 348.42107991 524.21005001 346.83984375 525.421875 C326.63637023 540.70860096 303.00408749 552.1035734 279 560 C277.61047804 560.48510733 276.22116664 560.97081807 274.83203125 561.45703125 C265.63825673 564.59683154 256.41371361 566.90397673 246.875 568.75 C245.85180664 568.94851563 244.82861328 569.14703125 243.77441406 569.3515625 C163.85295393 584.07990984 81.2672382 573 0 573 C0 383.91 0 194.82 0 0 Z M45 41 C45 203.03 45 365.06 45 532 C141.23204669 536.34426709 141.23204669 536.34426709 242.72753906 526.50585938 C244.79076253 526.04657714 246.85780255 525.62110896 248.9296875 525.203125 C282.07981663 517.89769114 313.57151111 500.31810303 338 477 C339.4300962 475.76222708 340.86677681 474.53198407 342.3125 473.3125 C384.49015669 436.66700963 401.87090617 374.25039828 408 321 C408.15795044 319.64563843 408.15795044 319.64563843 408.3190918 318.26391602 C409.24343821 309.01470037 409.18608973 299.73523347 409.18530273 290.44946289 C409.18747175 287.59961602 409.2056355 284.7501685 409.22460938 281.90039062 C409.28444204 262.39578377 407.3199173 243.211151 404 224 C403.86899902 223.24074219 403.73799805 222.48148438 403.60302734 221.69921875 C398.50475395 193.1439559 388.58167874 164.56299454 373 140 C372.62020996 139.40074707 372.24041992 138.80149414 371.84912109 138.18408203 C341.65035493 90.88524932 297.42163657 58.92502758 242.39648438 46.64086914 C178.71661055 33.25747479 104.56005176 41 45 41 Z " fill="#010101" transform="translate(1619,299)"/>
<path d="M0 0 C0.76199707 0.23976563 1.52399414 0.47953125 2.30908203 0.7265625 C23.93605164 7.63353064 43.89374959 17.96562464 61 33 C62.27617187 34.09441406 62.27617187 34.09441406 63.578125 35.2109375 C88.18911017 56.72667607 103.44157355 85.97774122 110.875 117.5 C111.09075684 118.40806396 111.30651367 119.31612793 111.52880859 120.25170898 C111.72297363 121.12770752 111.91713867 122.00370605 112.1171875 122.90625 C112.28847168 123.67259766 112.45975586 124.43894531 112.63623047 125.22851562 C113.14711416 129.12083218 113 133.07429875 113 137 C97.82 137 82.64 137 67 137 C65.35 130.73 63.7 124.46 62 118 C49.55282644 85.12067361 30.72164272 60.44663136 -1.64746094 45.05224609 C-20.75655282 36.5051118 -42.11664466 32.36307992 -63 32 C-64.07701172 31.97953613 -65.15402344 31.95907227 -66.26367188 31.93798828 C-103.49760304 31.3417329 -144.00994771 34.73384524 -173 61 C-173.83015625 61.73734375 -174.6603125 62.4746875 -175.515625 63.234375 C-193.48337555 80.09980956 -201.35957272 102.94738779 -202.3828125 127.1640625 C-202.96324892 151.21609285 -199.77640018 173.58772678 -183 192 C-181.94425781 193.19302734 -181.94425781 193.19302734 -180.8671875 194.41015625 C-154.60589125 222.44820687 -110.59402044 233.36482905 -74.5703125 242.5625 C-68.89102505 244.01583801 -63.24971302 245.58784188 -57.61010742 247.18701172 C-53.92015588 248.22303185 -50.2287482 249.19949344 -46.49609375 250.0703125 C0.17113947 260.98725082 48.73005603 279.66796504 84 313 C84.87269531 313.79664063 85.74539063 314.59328125 86.64453125 315.4140625 C109.82806902 337.3704316 120.30808832 365.93040563 124 397 C124.09498779 397.77279297 124.18997559 398.54558594 124.2878418 399.34179688 C128.13343515 433.49094323 122.66929145 465.97255191 106 496 C105.37351563 497.12921875 104.74703125 498.2584375 104.1015625 499.421875 C99.2350199 507.72479257 93.48738873 514.93628289 87 522 C86.49839355 522.54688477 85.99678711 523.09376953 85.47998047 523.65722656 C69.08612893 541.28825225 48.98283316 553.2019942 26.80810547 562.25927734 C25.13721408 562.94378781 23.47628654 563.65248589 21.81640625 564.36328125 C-5.66982398 575.6729021 -36.42229508 578.18762195 -65.83227539 578.18530273 C-68.89939605 578.18747304 -71.96614654 578.20563586 -75.03320312 578.22460938 C-118.78339842 578.35225785 -163.14955388 569.70834248 -200 545 C-200.62261719 544.58476074 -201.24523438 544.16952148 -201.88671875 543.74169922 C-231.92177178 523.34010007 -252.02730539 494.44340026 -265 461 C-265.32564941 460.17636963 -265.65129883 459.35273926 -265.98681641 458.50415039 C-268.90985427 450.8444336 -270.86918236 443.03377649 -272.75 435.0625 C-273.0685349 433.74923353 -273.38754296 432.43608173 -273.70703125 431.12304688 C-276 421.52930533 -276 421.52930533 -276 417 C-260.82 417 -245.64 417 -230 417 C-227 426 -227 426 -225.89453125 429.4921875 C-218.77643301 451.74588092 -209.11084087 473.71281202 -193 491 C-192.49243164 491.54849609 -191.98486328 492.09699219 -191.46191406 492.66210938 C-173.17104784 512.24497491 -149.94972618 525.22357239 -123.9375 531.625 C-123.15391113 531.81940674 -122.37032227 532.01381348 -121.56298828 532.21411133 C-118.7184618 532.87540055 -115.86832703 533.45004327 -113 534 C-112.00120819 534.19272491 -112.00120819 534.19272491 -110.98223877 534.38934326 C-97.43337001 536.92266454 -84.13703017 537.46909053 -70.37304688 537.39111328 C-67.00349467 537.37501669 -63.63514142 537.39106689 -60.265625 537.41015625 C-46.91016007 537.42279514 -34.12459477 536.46936494 -21 534 C-20.20850555 533.85513153 -19.41701111 533.71026306 -18.60153198 533.56100464 C3.61639515 529.46678363 26.12559405 520.35272039 43 505 C43.97582031 504.11699219 44.95164063 503.23398438 45.95703125 502.32421875 C53.40747387 495.35213709 58.97758136 487.86187091 64 479 C64.47953125 478.16726563 64.9590625 477.33453125 65.453125 476.4765625 C73.47391392 460.79033606 76.21583308 441.92989149 76.1875 424.5625 C76.18689575 423.88637665 76.1862915 423.2102533 76.18566895 422.51364136 C76.16216865 412.86490774 76.00353453 403.47648802 74 394 C73.63261719 392.20755859 73.63261719 392.20755859 73.2578125 390.37890625 C66.92688743 363.45846822 50.05493802 342.70974292 27 328 C12.89258195 319.32268238 -1.89785668 312.8444271 -17.36425781 307.00292969 C-19.53425699 306.17722048 -21.68830192 305.32697342 -23.8359375 304.4453125 C-31.85943369 301.19145132 -40.07295488 298.92754369 -48.42504883 296.70336914 C-51.50371788 295.86240531 -54.56721794 294.97336346 -57.6328125 294.0859375 C-65.03001998 291.96358851 -72.47658618 290.07080535 -79.9375 288.1875 C-126.96672383 276.18564377 -179.29311632 261.71674479 -215 227 C-215.81597656 226.24589844 -216.63195313 225.49179688 -217.47265625 224.71484375 C-240.08374673 203.22207614 -250.34735508 173.12039627 -251.21484375 142.3828125 C-251.45428544 129.24721887 -251.09833863 116.78232342 -248 104 C-247.73316406 102.78183594 -247.46632813 101.56367187 -247.19140625 100.30859375 C-241.67616369 77.19359938 -230.00285438 57.38439577 -214 40 C-213.13890625 39.05640625 -212.2778125 38.1128125 -211.390625 37.140625 C-190.81185513 15.58771218 -162.83453115 2.29507869 -134 -4 C-132.88238281 -4.27457031 -131.76476563 -4.54914063 -130.61328125 -4.83203125 C-89.06519007 -15.00605117 -40.58015046 -12.95685514 0 0 Z " fill="#010101" transform="translate(4252,1113)"/>
<path d="M0 0 C115.83 0 231.66 0 351 0 C351 13.53 351 27.06 351 41 C249.69 41 148.38 41 44 41 C44 110.3 44 179.6 44 251 C140.69 251 237.38 251 337 251 C337 264.53 337 278.06 337 292 C240.31 292 143.62 292 44 292 C44 371.2 44 450.4 44 532 C149.6 532 255.2 532 364 532 C362.82555956 546.09328527 360.32495277 560.05028335 358 574 C239.86 574 121.72 574 0 574 C0 384.58 0 195.16 0 0 Z " fill="#010101" transform="translate(2202,299)"/>
<path d="M0 0 C15.18 0 30.36 0 46 0 C46.00546844 6.85529228 46.00546844 6.85529228 46.01104736 13.84907532 C46.04643325 55.90020067 46.10159437 97.95126409 46.17792095 140.00233575 C46.18793666 145.53012135 46.19778109 151.05790726 46.20751953 156.58569336 C46.2094609 157.68603057 46.21140228 158.78636779 46.21340248 159.92004856 C46.2443004 177.66318224 46.26136884 195.40630303 46.27319422 213.14945851 C46.28566942 231.39823417 46.31331283 249.64694294 46.35461307 267.89567631 C46.37956763 279.1275893 46.39313062 290.35939113 46.39142957 301.59133222 C46.39139948 309.32642151 46.40629479 317.06139882 46.43216428 324.79644433 C46.44660248 329.2382099 46.45519727 333.67974602 46.44580269 338.12153053 C46.41352409 355.47751724 46.83591937 372.6174362 48.78411865 389.87687683 C48.86174935 390.58250373 48.93938005 391.28813062 49.01936319 392.01514015 C50.1775924 402.26889231 52.30705485 412.05337761 55 422 C55.25579197 422.96788191 55.51158393 423.93576381 55.77512717 424.93297547 C65.99271871 463.38144536 87.45926537 496.23250628 121.98852539 516.66235352 C139.93424313 526.92358379 159.49559789 532.30949172 179.79858398 535.63549805 C181.46256674 535.91101388 183.12303216 536.2078886 184.78149414 536.51489258 C193.77399934 538.07714098 202.59361675 538.35782351 211.6875 538.3125 C212.44912445 538.31067719 213.2107489 538.30885437 213.99545288 538.30697632 C259.02257689 538.12679035 303.67270366 528.05440963 336.25537109 495.23266602 C355.25871073 475.26271254 365.46705614 448.33317639 372 422 C372.28617188 420.8553125 372.57234375 419.710625 372.8671875 418.53125 C374.51654498 411.38970216 375.61654794 404.19196759 376.625 396.9375 C376.7482666 396.0515918 376.8715332 395.16568359 376.99853516 394.25292969 C378.63130024 381.93605449 379.1503629 369.6889993 379.15821838 357.27616882 C379.16279505 355.7263973 379.16779665 354.17662698 379.17318195 352.62685806 C379.18664682 348.40344521 379.19414723 344.18004033 379.20060861 339.95661175 C379.20866433 335.38896267 379.22234403 330.82132989 379.23532104 326.25369263 C379.25701094 318.35161033 379.27518254 310.44952633 379.29092598 302.54743004 C379.31369316 291.12249631 379.34182626 279.69758068 379.37124526 268.27266238 C379.41883752 249.73394765 379.46212421 231.19522549 379.50268555 212.65649414 C379.54208315 194.6538841 379.58351952 176.65128064 379.62768555 158.64868164 C379.63177196 156.98258072 379.63177196 156.98258072 379.63594092 155.2828212 C379.6496211 149.71028079 379.66334123 144.13774047 379.67708123 138.56520021 C379.79091449 92.37681375 379.89748606 46.18841285 380 0 C394.85 0 409.7 0 425 0 C425.04529507 47.09244712 425.08106358 94.18488896 425.10213066 141.27735358 C425.10463181 146.84806974 425.10722048 152.41878586 425.10986328 157.98950195 C425.11065021 159.65291428 425.11065021 159.65291428 425.11145304 161.34993089 C425.12013497 179.26149323 425.13589265 197.17304261 425.15430559 215.08459728 C425.17306639 233.48922916 425.18412974 251.8938543 425.18817699 270.29849535 C425.19090928 281.63790879 425.19951138 292.97728561 425.21583293 304.31668777 C425.22647626 312.11239507 425.22958416 319.90808367 425.22700275 327.70379769 C425.22573279 332.188835 425.22755756 336.67380871 425.23841095 341.15883446 C425.29222529 364.5609678 425.11198495 387.92461628 421.125 411.0625 C420.95355469 412.09286377 420.78210937 413.12322754 420.60546875 414.18481445 C419.16342204 422.59170995 417.29018576 430.784413 415 439 C414.71640625 440.1034375 414.4328125 441.206875 414.140625 442.34375 C406.71527799 470.22136861 393.79070639 496.08288105 375 518 C373.91912109 519.28390625 373.91912109 519.28390625 372.81640625 520.59375 C367.41847364 526.82879516 361.51824332 531.96681348 355 537 C353.62908203 538.09441406 353.62908203 538.09441406 352.23046875 539.2109375 C312.80456394 569.9534351 261.38460137 580.52818298 212.3125 580.3125 C211.39835327 580.31001251 210.48420654 580.30752502 209.5423584 580.30496216 C152.05217994 580.06415839 98.4429174 562.99695137 56.5 522.875 C36.54326049 502.4812516 23.96182742 477.41782821 14 451 C13.62681641 450.02861084 13.62681641 450.02861084 13.24609375 449.03759766 C0.00973199 414.19760261 -0.64473962 374.77683119 -0.46426249 337.97042823 C-0.44654424 333.40800334 -0.45286454 328.84559183 -0.45587158 324.28314209 C-0.45794173 316.4283657 -0.44568276 308.57372497 -0.42292023 300.7189827 C-0.39003376 289.36318387 -0.37995637 278.00744882 -0.37496826 266.65160756 C-0.36627211 248.21545535 -0.33981313 229.77937503 -0.30175781 211.34326172 C-0.26488899 193.46305697 -0.23665062 175.58287194 -0.21972656 157.70263672 C-0.21867567 156.59548387 -0.21762477 155.48833101 -0.21654204 154.34762807 C-0.21132086 148.79186965 -0.20626628 143.2361111 -0.20129442 137.68035245 C-0.16000982 91.78684936 -0.08859717 45.89343413 0 0 Z " fill="#000000" transform="translate(1929,1111)"/>
<path d="M0 0 C40.0021875 -0.0928125 40.0021875 -0.0928125 80.8125 -0.1875 C89.18085205 -0.21481201 97.5492041 -0.24212402 106.17114258 -0.27026367 C116.52282715 -0.28381348 116.52282715 -0.28381348 121.39457703 -0.28633118 C124.74095333 -0.2890856 128.08718158 -0.30016168 131.43351746 -0.31672668 C175.8012071 -0.52640357 223.55701226 1.26283456 257.2578125 34.203125 C278.08590517 55.44659273 285.45675181 81.33314948 285.375 110.5 C285.3737915 111.29646942 285.37258301 112.09293884 285.37133789 112.9135437 C285.25081075 142.1961276 277.55418987 168.37121434 256.43505859 189.60400391 C223.20085943 221.93356342 173.79511478 223.6900437 130.22254181 223.40512085 C126.07401007 223.38186462 121.9255752 223.38124318 117.77697754 223.37841797 C105.74709344 223.35765914 93.71729041 223.30181549 81.6875 223.25 C54.730625 223.1675 27.77375 223.085 0 223 C0 149.41 0 75.82 0 0 Z " fill="#FEFEFE" transform="translate(2560,1152)"/>
<path d="M0 0 C141.9 0 283.8 0 430 0 C430 13.53 430 27.06 430 41 C366.31 41 302.62 41 237 41 C237 216.56 237 392.12 237 573 C222.15 573 207.3 573 192 573 C192 397.44 192 221.88 192 41 C128.64 41 65.28 41 0 41 C0 27.47 0 13.94 0 0 Z " fill="#000000" transform="translate(1407,1111)"/>
<path d="M0 0 C14.52 0 29.04 0 44 0 C44 175.56 44 351.12 44 532 C145.64 532 247.28 532 352 532 C349.88269509 545.76248193 346.91756664 559.38468899 344 573 C230.48 573 116.96 573 0 573 C0 383.91 0 194.82 0 0 Z " fill="#000000" transform="translate(3565,1111)"/>
<path d="M0 0 C2.06059994 3.09089991 2.94058932 5.59439935 4.0625 9.125 C9.04849152 24.47945567 14.61882661 39.65018886 20.54199219 54.66625977 C23.56868855 62.37162126 26.28363399 70.18108921 29 78 C31.69325659 85.72602862 34.49427565 93.35270505 37.6875 100.88671875 C41.18922989 109.19290543 44.49003978 117.57967214 47.64453125 126.0234375 C47.89668396 126.69758698 48.14883667 127.37173645 48.40863037 128.0663147 C48.9682741 129.56265716 49.52761661 131.05911231 50.08670044 132.55566406 C62.44920328 165.73005661 62.44920328 165.73005661 75.08618164 198.80029297 C80.33544316 212.3822983 85.39985929 226.03509382 90.49414062 239.67578125 C94.67969004 250.87395026 98.92745462 262.04360929 103.28825378 273.17471313 C108 285.25807696 108 285.25807696 108 290 C38.7 290 -30.6 290 -102 290 C-100.11178203 283.70594011 -98.19625 277.61649375 -95.875 271.5 C-92.94982854 263.68976049 -90.19981278 255.82824609 -87.5 247.9375 C-84.62621114 239.54764494 -81.60416215 231.25163278 -78.32128906 223.01391602 C-76.20742212 217.664832 -74.4528167 212.25627347 -72.82421875 206.73828125 C-71.95797743 203.86038947 -70.95781321 201.07608806 -69.86645508 198.27783203 C-68.84725915 195.59845812 -67.88810963 192.90096688 -66.9296875 190.19921875 C-64.64729213 183.78470935 -62.3291206 177.3834729 -60.00390625 170.984375 C-59.272747 168.97006641 -58.5416279 166.95574324 -57.81054688 164.94140625 C-56.68858188 161.85032306 -55.56595414 158.7594893 -54.44116211 155.66943359 C-50.48113479 144.78737911 -46.54919835 133.90563011 -42.96107483 122.89422607 C-41.65016236 118.88054858 -40.24586097 114.91856068 -38.74687195 110.97122192 C-37.53783418 107.78020402 -36.37785929 104.5712806 -35.21484375 101.36328125 C-34.95783691 100.65483566 -34.70083008 99.94639008 -34.43603516 99.21647644 C-24.91490099 72.94635672 -15.79198446 46.55744596 -7.02124023 20.02734375 C-6.77586517 19.28688309 -6.53049011 18.54642242 -6.27767944 17.78352356 C-5.82185684 16.4077341 -5.36725623 15.03153882 -4.91421509 13.65483093 C-3.38925013 9.05614193 -1.72173271 4.52758908 0 0 Z " fill="#FEFEFE" transform="translate(1206,1155)"/>
<path d="M0 0 C0.66 0 1.32 0 2 0 C2.18473877 0.63574951 2.36947754 1.27149902 2.55981445 1.92651367 C7.22416457 17.84142933 12.61173464 33.33623765 18.6086731 48.79408264 C21.7057159 56.79182304 24.69862428 64.82865579 27.70129395 72.86218262 C29.31654484 77.18251392 30.93539325 81.50149532 32.5546875 85.8203125 C32.85987305 86.6342749 33.16505859 87.4482373 33.47949219 88.28686523 C37.7609866 99.70066271 42.10842159 111.0884773 46.48828125 122.46484375 C46.92551514 123.60066895 47.36274902 124.73649414 47.81323242 125.90673828 C48.64975919 128.0786252 49.48707839 130.25020719 50.32543945 132.42138672 C52.5373655 138.15878399 54.71696814 143.90718554 56.8671875 149.66796875 C60.15930089 158.47875301 63.57585422 167.23986259 67 176 C73.33381698 192.20407267 79.46249588 208.47271478 85.4375 224.8125 C85.92177501 226.13472087 86.40615157 227.45690455 86.890625 228.77905273 C88.59658033 233.43488469 90.30221142 238.09083415 92.00439453 242.74804688 C92.8348375 245.02005722 93.66672796 247.29152582 94.5 249.5625 C94.7578125 250.26536133 95.015625 250.96822266 95.28125 251.69238281 C97.11015393 256.65186273 98.98464741 261.5934163 100.87109375 266.53125 C101.12319611 267.19205063 101.37529846 267.85285126 101.63504028 268.53367615 C102.90079144 271.85104366 104.16996095 275.16702405 105.4453125 278.48071289 C105.90550781 279.6846167 106.36570312 280.88852051 106.83984375 282.12890625 C107.25613037 283.21244385 107.67241699 284.29598145 108.10131836 285.41235352 C109 288 109 288 109 290 C39.7 290 -29.6 290 -101 290 C-99.68730241 284.09286086 -98.34667505 278.66639674 -96.3203125 273.03515625 C-96.06627655 272.31694199 -95.8122406 271.59872772 -95.55050659 270.85874939 C-95.01677551 269.35295215 -94.48054549 267.84803847 -93.94189453 266.34399414 C-93.12879243 264.07309182 -92.32350115 261.79954005 -91.51953125 259.52539062 C-90.99524781 258.04931707 -90.47052254 256.57340036 -89.9453125 255.09765625 C-89.7097464 254.4337941 -89.4741803 253.76993195 -89.23147583 253.08595276 C-87.92237141 249.43658068 -86.53627768 245.83161644 -85.07519531 242.24023438 C-82.79513239 236.58135738 -80.81912986 230.8321713 -78.8515625 225.05859375 C-74.53097555 212.48174154 -70.08487489 199.95296185 -65.58789062 187.43823242 C-64.36674452 184.03952325 -63.14805906 180.63993903 -61.9296875 177.24023438 C-58.39734163 167.39279666 -54.84888286 157.55259967 -51.21484375 147.7421875 C-48.42907792 140.21867934 -45.77204519 132.65775271 -43.1875 125.0625 C-39.93914446 115.58069638 -36.63773958 106.1206263 -33.25 96.6875 C-28.77161978 84.21638016 -24.39009957 71.71273643 -20.02676392 59.20098877 C-16.39750039 48.79580194 -12.71766115 38.41394991 -8.9375 28.0625 C-5.56473417 18.81030678 -2.59977601 9.49767419 0 0 Z " fill="#FEFEFE" transform="translate(3216,1155)"/>
<path d="M0 0 C14.52 0 29.04 0 44 0 C44 189.09 44 378.18 44 573 C29.48 573 14.96 573 0 573 C0 383.91 0 194.82 0 0 Z " fill="#000000" transform="translate(1407,299)"/>
<path d="M0 0 C1.19206055 -0.01160156 1.19206055 -0.01160156 2.40820312 -0.0234375 C18.1212763 0.0277035 31.4738021 6.2463165 42.75 17 C47.27801469 21.71726607 50.75765202 26.34067637 53.5625 32.25 C54.04847656 33.26835938 54.53445313 34.28671875 55.03515625 35.3359375 C61.32768728 50.93580551 61.00226078 70.74373391 54.5625 86.25 C54.211875 87.13171875 53.86125 88.0134375 53.5 88.921875 C46.90032493 103.67948176 35.07174201 113.46263289 20.2890625 119.33984375 C8.28405112 123.34724726 -8.79449773 123.17300578 -20.4375 118.25 C-21.40429688 117.85941406 -22.37109375 117.46882813 -23.3671875 117.06640625 C-38.91619653 110.0831999 -48.36518819 97.79946719 -54.4375 82.19921875 C-59.49899736 67.27175583 -59.2490485 49.39870994 -52.99609375 34.91015625 C-49.1763186 27.31491889 -44.47133448 21.20773206 -38.4375 15.25 C-37.89738281 14.68796875 -37.35726562 14.1259375 -36.80078125 13.546875 C-26.90311756 4.07304074 -13.39961369 -0.12977834 0 0 Z " fill="#FBFBFB" transform="translate(4535.4375,1105.75)"/>
<path d="M0 0 C1.19206055 -0.01160156 1.19206055 -0.01160156 2.40820312 -0.0234375 C18.1212763 0.0277035 31.4738021 6.2463165 42.75 17 C47.27801469 21.71726607 50.75765202 26.34067637 53.5625 32.25 C54.04847656 33.26835938 54.53445313 34.28671875 55.03515625 35.3359375 C61.32768728 50.93580551 61.00226078 70.74373391 54.5625 86.25 C54.211875 87.13171875 53.86125 88.0134375 53.5 88.921875 C46.90032493 103.67948176 35.07174201 113.46263289 20.2890625 119.33984375 C8.28405112 123.34724726 -8.79449773 123.17300578 -20.4375 118.25 C-21.40429688 117.85941406 -22.37109375 117.46882813 -23.3671875 117.06640625 C-38.91619653 110.0831999 -48.36518819 97.79946719 -54.4375 82.19921875 C-59.49899736 67.27175583 -59.2490485 49.39870994 -52.99609375 34.91015625 C-49.1763186 27.31491889 -44.47133448 21.20773206 -38.4375 15.25 C-37.89738281 14.68796875 -37.35726562 14.1259375 -36.80078125 13.546875 C-26.90311756 4.07304074 -13.39961369 -0.12977834 0 0 Z M-32.4375 24.25 C-40.83152015 34.72411724 -45.85947783 45.97166852 -45.75 59.5 C-45.74436035 60.23943848 -45.7387207 60.97887695 -45.73291016 61.74072266 C-45.44718639 74.78500254 -41.11622862 86.911802 -32.19140625 96.62890625 C-19.9568649 107.93700126 -7.741085 110.9237936 8.43066406 110.38183594 C18.17443733 109.77926636 27.54218129 104.74230209 34.25 97.75 C44.75504191 84.70582474 47.73729733 69.71581014 46.5625 53.25 C44.51525458 39.2977644 37.375741 27.00967028 26.1484375 18.3984375 C8.34453414 6.92481089 -17.51236796 8.33250546 -32.4375 24.25 Z " fill="#050505" transform="translate(4535.4375,1105.75)"/>
<path d="M0 0 C7.610625 -0.1546875 7.610625 -0.1546875 15.375 -0.3125 C16.95458496 -0.35802002 18.53416992 -0.40354004 20.16162109 -0.45043945 C28.41674786 -0.53133114 35.08164684 0.01744129 42 5 C45.62678393 8.62678393 46.27093988 11.52804801 46.5 16.5 C46.32019675 21.40130333 45.29271336 24.23689901 42 28 C41.46375 28.61875 40.9275 29.2375 40.375 29.875 C39 31 39 31 37 31 C37 31.66 37 32.32 37 33 C37.598125 33.226875 38.19625 33.45375 38.8125 33.6875 C41.80332879 35.48199728 42.54028878 36.78863532 44 40 C44.50388849 43.59820002 44.6021891 47.18313052 44.6875 50.8125 C44.72166016 51.79154297 44.75582031 52.77058594 44.79101562 53.77929688 C44.87319858 56.18608345 44.94244433 58.59251945 45 61 C43.18757948 61.02687279 41.37504767 61.04633715 39.5625 61.0625 C38.55316406 61.07410156 37.54382812 61.08570313 36.50390625 61.09765625 C34 61 34 61 33 60 C32.8136108 57.60060886 32.66956017 55.21565918 32.5625 52.8125 C32.33416646 47.86203455 31.99851825 43.57288074 30 39 C26.2762882 36.51752547 23.13234385 36.55677028 18.8125 36.375 C16.234375 36.25125 13.65625 36.1275 11 36 C11 44.25 11 52.5 11 61 C7.37 61 3.74 61 0 61 C0 40.87 0 20.74 0 0 Z " fill="#020202" transform="translate(4514,1135)"/>
<path d="M0 0 C2.7225 -0.04125 5.445 -0.0825 8.25 -0.125 C9.10110352 -0.14320801 9.95220703 -0.16141602 10.82910156 -0.18017578 C18.01291116 -0.23292284 18.01291116 -0.23292284 21 2 C23.66773607 6.0016041 23.71478813 9.29431148 23 14 C21.12379387 16.50160818 19.76108697 17.61945652 17 19 C14.11426648 19.07199934 11.25934885 19.0927068 8.375 19.0625 C5.61125 19.041875 2.8475 19.02125 0 19 C0 12.73 0 6.46 0 0 Z " fill="#F4F4F4" transform="translate(4525,1143)"/>
</svg>
