<svg width="1600" height="1600" version="1.1" xmlns="http://www.w3.org/2000/svg" desc="Created with imagetracer.js version 1.2.6" ><path fill="rgb(56,84,68)" stroke="rgb(56,84,68)" stroke-width="1" opacity="0.592156862745098" d="M 681 605 Q 684 603.8 683 607.5 L 687.5 613 L 694.5 618 L 717.5 629 L 722.5 630 L 740.5 640 Q 752.3 647.3 761 657.5 Q 767.8 666.2 771 678.5 L 771 694.5 L 768 703.5 L 759.5 714 L 757.5 715 L 757 713.5 L 758 712.5 L 759 701.5 L 757 695.5 L 757 690.5 L 754 682.5 Q 745.6 667.4 732.5 657 L 704.5 638 L 702.5 638 L 711.5 648 L 740 674.5 L 749 692.5 L 750 708.5 L 745.5 720 L 738.5 720 L 729.5 718 L 714 708 Q 715.1 705.3 712.5 706 L 711 703 Q 708.3 704.1 709 701.5 L 706 697 Q 703.3 698.1 704 695.5 Q 695.2 685.3 690 671.5 L 690 668.5 L 688 666.5 L 685 656.5 L 682 642.5 L 682 633.5 L 680 623.5 L 680 607.5 L 681 605 Z " /><path fill="rgb(56,84,68)" stroke="rgb(56,84,68)" stroke-width="1" opacity="0.592156862745098" d="M 915.5 670 L 954.5 670 L 955 670.5 L 955 891 L 921.5 891 L 920 889.5 L 915 878 Q 905.4 886 891.5 891 L 878.5 894 L 859.5 894 L 846.5 891 L 835.5 886 Q 822.2 878.8 813 867.5 L 803 851.5 L 797 834.5 Q 798.8 828.2 796 826.5 L 796 804.5 L 800 786.5 L 805 775.5 Q 812.6 761.6 824.5 752 L 831.5 747 L 849.5 739 L 860.5 738 L 861.5 737 L 878.5 737 L 879.5 738 L 891.5 739 L 900.5 742 L 914 750 L 914 671.5 L 915.5 670 Z M 873 773 L 863 775 L 853 780 Q 839 790 835 810 Q 834 830 843 842 Q 852 854 871 858 L 880 858 L 889 856 L 903 848 L 909 841 L 914 828 L 914 804 L 911 794 L 906 787 L 904 784 Q 897 777 887 774 L 873 773 Z " /><path fill="rgb(56,84,68)" stroke="rgb(56,84,68)" stroke-width="1" opacity="0.592156862745098" d="M 1049.5 737 L 1065.5 737 L 1066.5 738 L 1077.5 739 L 1085.5 742 L 1099.5 750 L 1114 763.5 Q 1122.8 773.7 1128 787.5 L 1132 803.5 L 1133 820.5 L 1132 821.5 L 1131 833.5 L 1129.5 835 L 1024.5 835 L 1024 837.5 L 1035.5 850 Q 1042.3 856.2 1052.5 859 Q 1058.6 858.4 1061.5 861 L 1071.5 861 L 1072.5 860 L 1087.5 859 L 1107 853 L 1113 866.5 L 1120 877.5 L 1106.5 886 L 1092.5 891 Q 1083 891 1076.5 894 L 1053.5 894 L 1038.5 891 L 1025.5 886 L 1005 873 Q 1006.1 870.3 1003.5 871 L 1002 868 L 999 866.5 L 992 857.5 L 984 842.5 Q 984 836.5 981 833.5 L 979 815.5 L 980 814.5 L 981 797.5 Q 984.3 794.3 984 787.5 L 994 769.5 L 1007.5 755 L 1024.5 744 L 1037.5 739 L 1048.5 738 L 1049.5 737 Z M 1056 773 L 1046 775 L 1037 780 Q 1027 788 1022 801 L 1023 803 L 1092 803 L 1090 796 L 1085 788 Q 1079 780 1070 775 L 1056 773 Z " /><path fill="rgb(56,84,68)" stroke="rgb(56,84,68)" stroke-width="1" opacity="0.592156862745098" d="M 461 741 L 502.5 741 L 504 742.5 L 505 749.5 L 510 763.5 L 510 767.5 L 512 770.5 L 513 777.5 L 518 791.5 L 518 795.5 L 520 798.5 L 529 833.5 L 531 836.5 L 531 840.5 L 534.5 848 Q 537.5 848.9 536 844.5 L 538 841.5 L 538 837.5 L 541 830.5 L 541 826.5 L 546 812.5 L 546 808.5 L 551 794.5 L 552 786.5 L 554 783.5 L 554 779.5 L 557 772.5 L 557 768.5 L 559 765.5 L 565 741 L 599.5 741 L 600 744.5 L 629.5 849 L 632 846.5 Q 633 836.5 637 829.5 L 637 825.5 L 639 822.5 L 640 815.5 L 645 801.5 L 645 797.5 L 647 794.5 L 656 759.5 L 658 756.5 L 661 742.5 L 662.5 741 L 703.5 741 L 704 742.5 L 702 745.5 L 702 749.5 L 699 755.5 L 699 759.5 L 697 762.5 L 696 769.5 L 694 772.5 L 683 812.5 L 681 815.5 L 680 822.5 L 678 825.5 L 677 832.5 L 675 835.5 L 672 849.5 L 665 868.5 L 662 882.5 L 660 888.5 L 657.5 891 L 607.5 891 L 607 889.5 L 605 886.5 L 605 882.5 L 602 876.5 L 599 862.5 L 597 859.5 L 591 836.5 L 589 833.5 L 589 829.5 L 584 813.5 L 584 802.5 L 582.5 801 L 581 802.5 L 579 822.5 L 577 825.5 L 576 832.5 L 569 851.5 L 568 858.5 L 566 861.5 L 566 865.5 L 563 871.5 L 563 875.5 L 561 878.5 L 558 891 L 506.5 891 L 506 889.5 L 461 741 Z " /><path fill="rgb(56,84,68)" stroke="rgb(56,84,68)" stroke-width="1" opacity="0.592156862745098" d="M 732 741 L 771.5 741 L 773 742.5 L 773 889.5 L 771.5 891 L 732.5 891 L 732 890.5 L 732 741 Z " /><path fill="rgb(56,84,68)" stroke="rgb(56,84,68)" stroke-width="1" opacity="0.592156862745098" d="M 969.5 959 L 978.5 960 L 984 963.5 Q 985.3 967.3 981.5 966 Q 977.4 961.1 966.5 963 L 963 965.5 L 962 971.5 L 963 974 Q 968.5 977.9 978.5 979 L 984 982.5 Q 986.8 985.2 986 991.5 L 984 996 Q 981 995 982 998 L 979.5 998 L 971.5 1000 L 962.5 998 L 957 993.5 L 960.5 992 L 969.5 997 L 975.5 997 L 981 993.5 L 983 989.5 L 978.5 983 L 966.5 980 L 959 974.5 Q 956.8 963.3 963.5 961 L 969.5 959 Z " /><path fill="rgb(56,84,68)" stroke="rgb(56,84,68)" stroke-width="1" opacity="0.592156862745098" d="M 616 960 Q 620.7 959 622 962.5 L 625 968 Q 627.7 966.9 627 969.5 L 643 991 L 645 990.5 L 645 960.5 L 649 960 L 649 998.5 L 645 999 L 621.5 968 L 619 968.5 L 619 998.5 L 616 999 L 616 960 Z " /><path fill="rgb(56,84,68)" stroke="rgb(56,84,68)" stroke-width="1" opacity="0.592156862745098" d="M 683.5 960 Q 689.4 957.9 688 962.5 L 705 998.5 L 701 999 L 695.5 988 L 675.5 988 L 672 991.5 L 668.5 999 Q 665.2 1000.1 666 997.5 L 683.5 960 Z M 686 965 Q 679 973 676 985 L 679 986 L 692 986 L 694 985 L 693 980 L 686 965 Z " /><path fill="rgb(56,84,68)" stroke="rgb(56,84,68)" stroke-width="1" opacity="0.592156862745098" d="M 718 960 L 748.5 960 L 749 961.5 L 747.5 963 L 736.5 963 L 735 964.5 L 735 998.5 L 731 999 L 731 963.5 L 730.5 963 L 719.5 963 L 718 960 Z " /><path fill="rgb(56,84,68)" stroke="rgb(56,84,68)" stroke-width="1" opacity="0.592156862745098" d="M 764 960 L 768 960.5 L 768 986.5 Q 769.3 992.3 773.5 995 L 778.5 997 L 783.5 997 L 791 993 L 794 984.5 L 794 960 L 797 960.5 L 797 987.5 Q 795.2 994.7 789.5 998 L 778.5 1000 L 771.5 998 L 767 993.5 L 765 989.5 Q 766.8 983.3 764 981.5 L 764 960 Z " /><path fill="rgb(56,84,68)" stroke="rgb(56,84,68)" stroke-width="1" opacity="0.592156862745098" d="M 816 960 L 838.5 960 L 844 963 Q 846.7 966 847 972.5 L 846 976.5 L 840.5 982 Q 835.7 980.3 837 984.5 L 847 998.5 L 843.5 999 L 830.5 983 Q 822.3 981.9 819 984 L 819 998.5 L 816 999 L 816 960 Z M 821 963 L 819 965 L 819 979 L 822 981 Q 834 983 841 978 L 843 974 Q 844 968 842 966 L 836 963 L 821 963 Z " /><path fill="rgb(56,84,68)" stroke="rgb(56,84,68)" stroke-width="1" opacity="0.592156862745098" d="M 879 960 Q 882.8 959 884 961.5 L 901 998.5 L 897.5 999 L 893 989 L 890.5 988 L 871.5 988 L 868 991.5 L 864.5 999 Q 861.2 1000.1 862 997.5 L 879 960 Z M 880 965 L 872 985 L 875 986 L 889 986 L 890 985 L 883 967 L 880 965 Z " /><path fill="rgb(56,84,68)" stroke="rgb(56,84,68)" stroke-width="1" opacity="0.592156862745098" d="M 917 960 L 921 960.5 L 921 994.5 L 922.5 996 L 942.5 996 L 944 997.5 L 943.5 999 L 917 999 L 917 960 Z " /><path fill="rgb(56,84,68)" stroke="rgb(56,84,68)" stroke-width="1" opacity="0.592156862745098" d="M 0 1566 L 1599.5 1566 L 1600 1566.5 L 1600 1600 L 0.5 1600 L 0 1599.5 L 0 1566 Z " /><path fill="rgb(254,254,254)" stroke="rgb(254,254,254)" stroke-width="1" opacity="1" d="M 679 599 L 682 599 Q 681 602 684 601 L 684 605 Q 686.7 603.9 686 606.5 L 687 610 Q 690 609 689 612 L 691.5 612 L 694 613 L 695 617 L 702 618 Q 700.8 621 704.5 620 L 708 621 L 708 623 L 712.5 623 L 713 625 L 715.5 625 L 719 626 Q 717.6 629.7 723.5 628 L 727 629 L 727 631 Q 731.1 629.7 730 633 L 733.5 633 L 735 636 L 742 637 L 743 641 L 748 642 Q 746.8 645 750.5 644 L 753 645 L 754 649 L 758 650 L 759.5 653 Q 761.8 652.3 761 654.5 L 762 657 L 764 657 Q 762.5 660.8 765.5 660 Q 768 661.2 767 665 Q 770 663.8 769 667.5 L 770 673 L 772 673 L 772 679 L 774 679.5 L 774 695 L 772 695 L 772 700.5 L 770 701 L 770 703.5 L 769 708 L 766 709.5 L 766 712 L 764 712 L 762 716 L 759.5 716 L 754 717 Q 753 712.8 756 713.5 L 756 695 Q 752.5 696.1 754 688.5 L 753 685 Q 750 686.3 751 682.5 L 750 679 L 746 677 L 746 674.5 L 745 672 L 742 670.5 Q 742.8 668.3 740.5 669 L 738 668 Q 740.1 662.8 735.5 664 L 734 661 L 730 660 L 729 656 L 724 655 Q 722.9 657.7 725.5 657 L 727 660 L 730 661.5 L 730 663 L 732 663 Q 730.9 665.7 733.5 665 L 737 666 L 738 671 L 740 671 Q 738.9 673.7 741.5 673 L 743 676 Q 746 674.8 745 678.5 L 746 682 L 748 682 Q 746.7 686.1 750 685 L 750 689.5 L 751 690.5 L 751 715.5 L 750 719 L 748 719 L 747.5 722 L 735 722 Q 736.4 718 729.5 720 L 726 719 Q 727.3 715.7 722.5 717 L 721 714 L 718 714 Q 719.1 711.3 716.5 712 L 714 711 L 712.5 708 L 710 708 L 710 706 L 708 706 L 708 703 Q 705.3 704.1 706 701.5 L 703 700 L 702 695 L 698 693 L 698 690.5 L 697 688 Q 694 689.3 695 685.5 L 694 682 L 692 682 L 692 679 Q 689 680.3 690 676.5 L 689 671 Q 686 672.3 687 668.5 L 686 663 L 684 663 L 684 656.5 Q 680.5 657.5 682 650.5 L 681 649.5 L 681 640 L 679 639.5 L 679 599 Z M 681 605 L 680 608 L 680 624 L 682 634 L 682 643 L 685 657 L 688 667 L 690 669 L 690 672 Q 695 685 704 696 Q 703 698 706 697 L 709 702 Q 708 704 711 703 L 713 706 Q 715 705 714 708 L 730 718 L 739 720 L 746 720 L 750 709 L 749 693 L 740 675 L 712 648 L 702 637 L 733 657 Q 746 667 754 683 L 757 691 L 757 696 L 759 702 L 758 713 L 757 714 L 758 715 L 760 714 L 768 704 L 771 695 L 771 679 Q 768 666 761 658 Q 752 647 741 640 L 723 630 L 718 629 L 695 618 L 688 613 L 683 608 Q 684 604 681 605 Z M 722 653 Q 721 656 724 655 Q 725 652 722 653 Z " /><path fill="rgb(254,254,254)" stroke="rgb(254,254,254)" stroke-width="1" opacity="1" d="M 913 668 L 957.5 668 L 958 668.5 L 958 892 L 918.5 892 L 918 888 L 916 888 Q 917.3 883.9 914 885 L 914 882 L 911 882 L 909.5 885 Q 906.9 884.3 908 887 L 905.5 887 L 902 888 L 902 890 L 897.5 890 L 897 892 L 894.5 892 L 893.5 893 L 887 893 L 886.5 895 L 878.5 895 L 877.5 896 L 860.5 896 L 859.5 895 L 850 895 Q 851.3 891.7 846.5 893 L 841 892 L 841 890 Q 836.9 891.3 838 888 L 834.5 888 L 831 887 Q 832.3 884 828.5 885 L 826 884 L 826 882 Q 822.3 883.5 823 880.5 L 820 879 Q 821.1 876.3 818.5 877 L 817 874 Q 814.3 875.1 815 872.5 L 812 871 Q 813 868 810 869 L 810 866.5 L 809 864 L 806 862.5 L 806 860 L 804 860 L 804 856 Q 801 857.3 802 853.5 L 801 850 Q 797.3 851.4 799 845.5 L 798 840 L 796 840 L 796 834 L 794 833.5 L 794 820.5 Q 791.2 818.8 793 812.5 L 794 811.5 L 794 797 L 796 797 L 796 789.5 L 798 789 L 798 786.5 L 799 781 Q 802 782.3 801 778.5 L 802 775 L 804 775 L 804 772 Q 807 773.3 806 769.5 L 807 767 Q 810 768.3 809 764.5 L 810 762 L 814 761 L 815 757 L 818 755.5 Q 817.3 753.3 819.5 754 L 822 753 L 823 749 L 828 748 Q 826.9 745.3 829.5 746 L 833 745 L 833 743 L 836 743 Q 834.8 740 838.5 741 L 844 740 Q 842.6 736.3 848.5 738 L 849.5 737 L 857 737 L 857.5 735 L 884 735 L 884.5 737 L 891.5 737 L 898 738 Q 896.7 741.3 901.5 740 L 905 741 L 905 743 L 908 743 Q 906.8 746 910.5 745 L 913 746 L 913 668 Z M 916 670 L 914 672 L 914 750 L 901 742 L 892 739 L 880 738 L 879 737 L 862 737 L 861 738 L 850 739 L 832 747 L 825 752 Q 813 762 805 776 L 800 787 L 796 805 L 796 827 Q 799 828 797 835 L 803 852 L 813 868 Q 822 879 836 886 L 847 891 L 860 894 L 879 894 L 892 891 Q 905 886 915 878 L 920 890 L 922 891 L 955 891 L 955 671 L 955 670 L 916 670 Z " /><path fill="rgb(254,254,254)" stroke="rgb(254,254,254)" stroke-width="1" opacity="1" d="M 1046 735 L 1070.5 735 Q 1069.6 738.2 1077.5 737 L 1084 738 Q 1082.8 741 1086.5 740 L 1090 741 L 1090 743 L 1094 743 Q 1092.8 746 1096.5 745 L 1098 748 Q 1101.8 747 1103 749.5 Q 1102.3 752.1 1105 751 L 1105 753 L 1107.5 753 L 1110 754 L 1111.5 757 Q 1113.8 756.3 1113 758.5 L 1114 761 L 1116 761 Q 1114.5 764.8 1117.5 764 L 1119 767 Q 1122 765.8 1121 769.5 L 1122 772 L 1124 772 L 1124 775 Q 1127 773.8 1126 777.5 L 1127 781 Q 1130.7 779.6 1129 785.5 L 1130 791 L 1132 791 L 1132 797 L 1134 797.5 L 1134 806.5 L 1135 807.5 L 1135 823.5 L 1134 824.5 L 1134 834 L 1132 834 L 1131.5 837 L 1028.5 837 L 1028 839 Q 1030.7 837.9 1030 840.5 L 1031 844 L 1036 845 L 1036 847 Q 1038.7 845.9 1038 848.5 L 1042 850 Q 1040.9 852.7 1043.5 852 L 1047 853 L 1047 855 Q 1051.1 853.7 1050 857 L 1056.5 857 L 1057.5 858 L 1080.5 858 L 1081.5 857 L 1089 857 L 1089 855 L 1094.5 855 Q 1093.5 851.8 1099.5 853 L 1100.5 852 L 1110 852 L 1111 858 Q 1114 856.8 1113 860.5 L 1114 865 L 1116 865 Q 1114.5 868.7 1117.5 868 Q 1120 869.2 1119 873 Q 1122 871.8 1121 875.5 L 1122 880 Q 1118.3 878.5 1119 881.5 L 1118 884 L 1111 885 Q 1112.3 888 1108.5 887 L 1103 888 L 1103 890 L 1098.5 890 Q 1099.5 893 1094.5 892 L 1093.5 893 L 1087 893 L 1086.5 895 L 1074.5 895 L 1073.5 896 L 1054.5 896 L 1053.5 895 L 1044 895 Q 1045.4 891 1038.5 893 L 1033 892 L 1033 890 L 1028.5 890 L 1028 888 L 1025.5 888 L 1022 887 Q 1023.3 883.7 1018.5 885 L 1015 884 L 1014 880 Q 1010.2 881 1009 878.5 Q 1009.8 876.3 1007.5 877 L 1004 876 L 1004 874 Q 1001.3 875.1 1002 872.5 L 999 871 L 997.5 868 Q 994.9 868.7 996 866 L 994 866 L 994 863.5 L 993 861 L 990 859.5 L 990 856 L 988 856 L 988 853 Q 985 854.3 986 850.5 L 985 847 Q 982 848.3 983 844.5 L 982 839 L 980 839 L 980 832.5 L 978 831.5 L 978 821.5 L 977 820.5 L 977 810.5 L 978 809.5 L 978 797 L 980 797 L 980 791.5 Q 983.3 792.5 982 786.5 L 983 783 Q 986 784.3 985 780.5 L 986 777 L 988 777 L 988 773 Q 991 774.3 990 770.5 L 993 769 L 994 764 L 996 764 Q 994.9 761.3 997.5 762 L 999 759 Q 1001.7 760.1 1001 757.5 L 1004 756 Q 1002.9 753.3 1005.5 754 L 1007 751 L 1010 751 Q 1008.9 748.3 1011.5 749 L 1015 748 Q 1013.9 745.3 1016.5 746 L 1020 745 L 1020 743 Q 1024.1 744.3 1023 741 L 1027.5 741 L 1031 740 Q 1029.9 736.5 1037.5 738 L 1038.5 737 L 1046 737 L 1046 735 Z M 1050 737 L 1049 738 L 1038 739 L 1025 744 L 1008 755 L 994 770 L 984 788 Q 984 794 981 798 L 980 815 L 979 816 L 981 834 Q 984 836 984 843 L 992 858 L 999 867 L 1002 868 L 1004 871 Q 1006 870 1005 873 L 1026 886 L 1039 891 L 1054 894 L 1077 894 Q 1083 891 1093 891 L 1107 886 L 1120 878 L 1113 867 L 1107 853 L 1088 859 L 1073 860 L 1072 861 L 1062 861 Q 1059 858 1053 859 Q 1042 856 1036 850 L 1024 838 L 1025 835 L 1130 835 L 1131 834 L 1132 822 L 1133 821 L 1132 804 L 1128 788 Q 1123 774 1114 764 L 1100 750 L 1086 742 L 1078 739 L 1067 738 L 1066 737 L 1050 737 Z " /><path fill="rgb(254,254,254)" stroke="rgb(254,254,254)" stroke-width="1" opacity="1" d="M 458 740 L 504.5 740 L 506 741.5 L 506 745.5 L 508 746 L 508 752.5 Q 511 751.5 510 756.5 L 511 757.5 L 511 764 Q 514.7 762.6 513 768.5 L 514 775 L 516 775 L 516 780 L 518 780 L 518 785.5 L 519 791 Q 523 789.6 521 796.5 L 522 802 L 524 802 L 524 808.5 Q 527 807.5 526 812.5 L 527 813.5 L 527 820 Q 530.7 818.6 529 824.5 L 530 831 L 532 831 L 532 836 L 534 836 L 534 841.5 L 535 841.5 Q 533.8 835.5 537 836.5 L 537 831.5 L 538 826 L 540 826 L 540 820.5 Q 543.3 821.5 542 815.5 L 543 809 Q 546.7 810.4 545 804.5 L 546 803.5 L 546 797 L 548 797 L 548 791.5 Q 551.2 792.5 550 786.5 L 551 780 Q 554.7 781.4 553 775.5 L 554 769 L 556 769 L 556 762.5 Q 559.3 763.5 558 757.5 L 559 751 Q 562.7 752.4 561 746.5 L 562 740 L 602 740 L 602 745.5 L 604 746 L 604 752.5 Q 607 751.5 606 756.5 L 607 757.5 L 607 764 Q 610.7 762.6 609 768.5 L 610 775 L 612 775 L 612 780.5 Q 615.3 779.5 614 785.5 L 615 786.5 L 615 793 Q 618.3 791.7 617 796.5 L 618 797.5 L 618 804 L 620 804 L 620 809.5 Q 623.3 808.5 622 814.5 L 623 821 Q 626.7 819.6 625 825.5 L 626 826.5 L 626 833 L 628 833 L 628 838.5 L 630 839 L 630 841.5 L 631 841.5 L 631 836.5 Q 634.3 837.5 633 831.5 L 634 825 L 636 825 Q 634.5 818.7 638 819.5 L 638 815.5 L 639 809 Q 642.7 810.4 641 804.5 L 642 803.5 L 642 797 L 644 797 Q 642.3 791.8 646 793 L 646 786.5 L 647 781 Q 651 782.4 649 775.5 L 650 770 L 652 770 L 652 764.5 Q 655.3 765.5 654 759.5 L 655 753 Q 658.7 754.4 657 748.5 L 658 747.5 L 658 741 L 660.5 740 L 706 740 L 705 749 Q 701.3 747.6 703 753.5 L 702 760 L 700 760 Q 701.5 766.3 698 765.5 L 698 769.5 L 697 776 Q 693.3 774.6 695 780.5 L 694 786 L 692 786 L 692 791.5 Q 688.8 790.5 690 796.5 L 689 802 Q 685 800.6 687 807.5 L 686 813 L 684 813 L 684 818 L 682 818 L 682 823.5 L 681 829 Q 677.3 827.6 679 833.5 L 678 840 L 676 840 Q 677.5 846.3 674 845.5 L 674 849.5 L 673 856 Q 669.3 854.6 671 860.5 L 670 866 L 668 866 L 668 871 L 666 871 L 666 876.5 L 665 882 Q 661.3 880.6 663 886.5 L 662 892 L 604.5 892 L 604 887 L 602 886.5 L 602 882.5 L 601 876 Q 597.3 877.4 599 871.5 L 598 866 L 596 866 L 596 860.5 Q 592.8 861.5 594 855.5 L 593 850 Q 589 851.4 591 844.5 L 590 839 L 588 839 L 588 834 L 586 834 L 586 828.5 L 585 823 L 583 822.5 L 583 813.5 L 582 813.5 L 582 822.5 Q 578.5 821.7 580 828 L 578 828 L 578 833.5 L 577 839 Q 573.3 837.6 575 843.5 L 574 848 L 572 848 L 572 854.5 Q 568.8 853.5 570 859.5 L 569 864 Q 565.5 862.9 567 870.5 L 566 876 L 564 876 Q 565.7 881.2 562 880 L 562 886.5 L 561 892 L 503.5 892 Q 502.5 892 503 887.5 L 502 882 L 500 882 L 500 877 L 498 877 L 498 871.5 L 497 866 Q 493.3 867.4 495 861.5 L 494 855 L 492 855 Q 493.5 848.7 490 849.5 L 490 845.5 L 489 839 Q 485.3 840.4 487 834.5 L 486 829 L 484 829 L 484 823.5 Q 480.8 824.5 482 818.5 L 481 813 Q 477 814.4 479 807.5 L 478 802 L 476 802 L 476 797 L 474 797 L 474 791.5 L 473 786 Q 469.3 787.4 471 781.5 L 470 775 L 468 775 Q 469.5 768.7 466 769.5 L 466 765.5 L 465 759 Q 461.3 760.4 463 754.5 L 462 749 L 460 749 L 460 743.5 Q 457 744.3 458 740 Z M 461 741 L 506 890 L 507 891 L 558 891 L 561 879 L 563 876 L 563 872 L 566 866 L 566 862 L 568 859 L 569 852 L 576 833 L 577 826 L 579 823 L 581 803 L 583 801 L 584 803 L 584 814 L 589 830 L 589 834 L 591 837 L 597 860 L 599 863 L 602 877 L 605 883 L 605 887 L 607 890 L 608 891 L 658 891 L 660 889 L 662 883 L 665 869 L 672 850 L 675 836 L 677 833 L 678 826 L 680 823 L 681 816 L 683 813 L 694 773 L 696 770 L 697 763 L 699 760 L 699 756 L 702 750 L 702 746 L 704 743 L 704 741 L 663 741 L 661 743 L 658 757 L 656 760 L 647 795 L 645 798 L 645 802 L 640 816 L 639 823 L 637 826 L 637 830 Q 633 837 632 847 L 630 849 L 600 745 L 600 741 L 565 741 L 559 766 L 557 769 L 557 773 L 554 780 L 554 784 L 552 787 L 551 795 L 546 809 L 546 813 L 541 827 L 541 831 L 538 838 L 538 842 L 536 845 Q 537 849 535 848 L 531 841 L 531 837 L 529 834 L 520 799 L 518 796 L 518 792 L 513 778 L 512 771 L 510 768 L 510 764 L 505 750 L 504 743 L 503 741 L 461 741 Z " /><path fill="rgb(254,254,254)" stroke="rgb(254,254,254)" stroke-width="1" opacity="1" d="M 730 740 L 774.5 740 L 775 740.5 L 775 892 L 730.5 892 L 730 891.5 L 730 740 Z M 732 741 L 732 891 L 733 891 L 772 891 L 773 890 L 773 743 L 772 741 L 732 741 Z " /><path fill="rgb(254,254,254)" stroke="rgb(254,254,254)" stroke-width="1" opacity="1" d="M 872.5 773 L 886.5 774 Q 897.1 776.9 904 783.5 L 906 786.5 L 911 793.5 L 914 803.5 L 914 827.5 L 909 840.5 L 902.5 848 L 888.5 856 L 879.5 858 L 870.5 858 Q 852.3 854.3 843 841.5 Q 834.2 830.3 835 809.5 Q 838.6 789.6 852.5 780 L 862.5 775 L 872.5 773 Z M 872 775 L 871 776 L 865 776 L 865 778 L 860 778 L 860 780 L 857 781 Q 854 780 855 783 L 850 784 L 849 788 L 846 790 L 846 792 L 842 794 L 841 798 Q 843 803 839 802 L 838 808 L 838 825 L 839 826 Q 838 830 841 829 L 842 835 Q 841 837 844 836 L 844 839 L 846 839 L 848 842 Q 850 841 849 845 L 852 845 Q 851 848 854 847 L 856 850 Q 859 849 858 852 L 863 853 Q 866 852 865 855 L 886 855 L 886 853 L 891 852 Q 895 853 894 850 L 898 849 Q 897 846 900 847 L 900 845 L 902 845 L 903 842 L 906 841 L 906 837 Q 909 838 908 834 L 910 834 L 911 829 L 911 822 L 913 821 L 913 809 L 911 808 L 911 801 L 910 800 L 910 796 L 908 796 L 908 792 Q 905 793 906 790 L 903 788 L 902 784 L 900 783 Q 897 784 898 781 L 895 780 L 892 780 L 892 778 L 887 778 L 887 776 L 872 775 Z " /><path fill="rgb(254,254,254)" stroke="rgb(254,254,254)" stroke-width="1" opacity="1" d="M 1055.5 773 L 1069.5 775 Q 1078.9 779.6 1085 787.5 L 1090 795.5 L 1092 803 L 1022.5 803 L 1022 800.5 Q 1026.8 787.8 1036.5 780 L 1045.5 775 L 1055.5 773 Z M 1055 775 L 1054 776 L 1047 776 Q 1048 779 1044 778 L 1044 780 L 1041 781 Q 1038 780 1039 783 L 1034 784 L 1033 787 Q 1034 789 1031 788 L 1030 792 L 1028 792 L 1028 796 L 1026 796 L 1025 800 L 1026 802 L 1089 802 Q 1090 798 1087 799 L 1086 792 L 1082 791 L 1081 788 Q 1082 785 1079 786 L 1078 783 Q 1075 784 1076 781 L 1073 780 Q 1070 781 1071 778 L 1068 778 L 1068 776 L 1055 775 Z " /><path fill="rgb(254,254,254)" stroke="rgb(254,254,254)" stroke-width="1" opacity="1" d="M 614 957 L 621.5 957 L 622 958.5 L 623 962 Q 625.7 960.9 625 963.5 L 628 965 Q 627 968 630 967 L 630 969.5 L 631 972 L 634 973.5 L 638 979.5 L 641 981 Q 640 984.8 642.5 986 L 644 985.5 L 644 957.5 L 644.5 957 L 650 957 L 650 999.5 L 649.5 1000 L 642 1000 L 640.5 996 Q 638.3 996.8 639 994.5 L 638 991 L 636 991 Q 637.1 988.3 634.5 989 L 633 986 Q 630 987.3 631 983.5 L 630 981 L 626 980 L 625 975 Q 622.3 976.1 623 973.5 L 622 973.5 L 622 999.5 L 621.5 1000 L 614 1000 L 614 957 Z M 616 960 L 616 999 L 619 999 L 619 969 L 622 968 L 645 999 L 649 999 L 649 960 L 645 961 L 645 991 L 643 991 L 627 970 Q 628 967 625 968 L 622 963 Q 621 959 616 960 Z " /><path fill="rgb(254,254,254)" stroke="rgb(254,254,254)" stroke-width="1" opacity="1" d="M 681 957 L 688.5 957 L 689 958.5 L 690 962 L 692 962 L 692 966.5 L 694 967 L 694 969.5 L 695 973 Q 698.3 971.7 697 976.5 L 698 980 L 700 980 L 700 984.5 L 702 985 L 702 987.5 L 703 991 Q 706 989.8 705 993.5 L 706 997 Q 709.3 995.9 708 1000 L 698.5 1000 L 698 997.5 L 697 994 L 695 994 L 694.5 991 L 674 991 L 673 999 Q 669.9 1001 663 1000 L 663 996 Q 666 997.3 665 993.5 L 666 989 L 668 989 Q 666.7 984.9 670 986 L 670 981.5 L 671 978 Q 674 979.3 673 975.5 L 674 972 L 676 972 Q 674.7 967.9 678 969 L 678 964.5 L 679 961 Q 682.7 962.2 681 957 Z M 684 960 L 666 998 Q 665 1000 669 999 L 672 992 L 676 988 L 696 988 L 701 999 L 705 999 L 688 963 Q 689 958 684 960 Z " /><path fill="rgb(254,254,254)" stroke="rgb(254,254,254)" stroke-width="1" opacity="1" d="M 716 957 L 750.5 957 L 751 957.5 L 751 965 L 737 965 L 737 999.5 L 736.5 1000 L 729 1000 L 729 965.5 L 728.5 965 L 716 965 L 716 957 Z M 718 960 L 720 963 L 731 963 L 731 964 L 731 999 L 735 999 L 735 965 L 737 963 L 748 963 L 749 962 L 749 960 L 718 960 Z " /><path fill="rgb(254,254,254)" stroke="rgb(254,254,254)" stroke-width="1" opacity="1" d="M 762 957 L 770 957 L 770 987.5 L 772 988 L 772 991 Q 775 990 774 993 L 776.5 993 Q 778.2 995.8 784.5 994 L 788 993 Q 787 990 790 991 L 790 988.5 L 791 987.5 L 791 957 L 798.5 957 L 799 957.5 L 799 988.5 L 798 994 L 796 994 Q 797.1 996.7 794.5 996 L 793 999 L 786 1000 L 785.5 1002 L 775 1002 Q 776.4 998.3 770.5 1000 L 767 999 L 766 994 L 764 994 Q 765 989.8 762 990.5 L 762 957 Z M 764 960 L 764 982 Q 767 983 765 990 L 767 994 L 772 998 L 779 1000 L 790 998 Q 795 995 797 988 L 797 961 L 794 960 L 794 985 L 791 993 L 784 997 L 779 997 L 774 995 Q 769 992 768 987 L 768 961 L 764 960 Z " /><path fill="rgb(254,254,254)" stroke="rgb(254,254,254)" stroke-width="1" opacity="1" d="M 814 957 L 837.5 957 L 838 959 Q 843.3 957.8 842.5 961 L 845.5 961 L 847 965 L 849 965.5 L 849 978 Q 846.3 976.9 847 979.5 L 844 981 Q 845.3 984 841.5 983 L 839 984.5 L 842 986.5 L 842 989 L 844 989 L 844 991 Q 846.7 989.9 846 992.5 L 847 996 L 850 997.5 L 849.5 1000 L 841.5 1000 L 839 999 L 838 994 L 836 994 Q 837.1 991.3 834.5 992 L 833 988 Q 829.9 988.8 830.5 986 L 822 986 L 822 1000 L 814 1000 L 814 957 Z M 816 960 L 816 999 L 819 999 L 819 984 Q 822 982 831 983 L 844 999 L 847 999 L 837 985 Q 836 980 841 982 L 846 977 L 847 973 Q 847 966 844 963 L 839 960 L 816 960 Z " /><path fill="rgb(254,254,254)" stroke="rgb(254,254,254)" stroke-width="1" opacity="1" d="M 878 957 L 886 957 L 886 960.5 L 887 964 Q 890.7 962.6 889 968.5 L 890 972 L 892 972 L 892 975 Q 895 973.8 894 977.5 L 895 981 Q 898.7 979.6 897 985.5 L 898 989 L 900 989 L 900 993 Q 903 991.8 902 995.5 L 903 1000 L 895.5 1000 L 894 998.5 Q 895 994.8 892 996 L 892 992 L 890.5 992 L 889.5 991 L 871 991 L 870 997 L 868 997 L 867.5 1000 L 858 1000 L 858 997 L 860 997 L 860 994 Q 863 995.3 862 991.5 L 863 988 Q 866 989.3 865 985.5 L 866 980 L 868 980 Q 866.7 975.9 870 977 L 870 973.5 L 871 970 Q 874 971.3 873 967.5 L 874 962 L 876 962 L 876 959 Q 879 960 878 957 Z M 879 960 L 862 998 Q 861 1000 865 999 L 868 992 L 872 988 L 891 988 L 893 989 L 898 999 L 901 999 L 884 962 Q 883 959 879 960 Z " /><path fill="rgb(254,254,254)" stroke="rgb(254,254,254)" stroke-width="1" opacity="1" d="M 914 957 L 921.5 957 L 922 957.5 L 922 994 L 944.5 994 L 945 994.5 L 945 1000 L 914 1000 L 914 957 Z M 917 960 L 917 999 L 944 999 L 944 998 L 943 996 L 923 996 L 921 995 L 921 961 L 917 960 Z " /><path fill="rgb(254,254,254)" stroke="rgb(254,254,254)" stroke-width="1" opacity="1" d="M 964 957 L 980 957 L 980 959 L 983 959 Q 981.9 962.3 986 961 L 986 966.5 Q 985 969 980.5 968 L 977 967 L 976.5 965 L 967 965 L 965.5 968 L 964 968 L 964 972 L 969 973 L 969 975 L 974.5 975 Q 973.5 978.3 979.5 977 L 983 978 Q 981.9 980.7 984.5 980 L 986 983 L 988 983.5 L 988 994 Q 985 992.8 986 996.5 L 985 999 L 978 1000 L 977.5 1002 L 966 1002 Q 967.4 998.3 961.5 1000 L 958 999 Q 959.1 996.3 956.5 997 L 954 996 Q 952.7 991.9 956 993 L 956 989 L 962 989 L 964 993 L 966.5 993 L 967.5 994 L 976.5 994 L 978 991 Q 981.3 992.1 980 988 Q 977.3 989.1 978 986.5 L 977 984 L 966 983 Q 967.3 979.7 962.5 981 L 959 980 L 958 975 L 956 974.5 L 956 965 Q 959 966.3 958 962.5 L 961 961 L 961 959 Q 965.1 960.3 964 957 Z M 970 959 L 964 961 Q 957 963 959 975 L 967 980 L 979 983 L 983 990 L 981 994 L 976 997 L 970 997 L 961 992 L 957 994 L 963 998 L 972 1000 L 980 998 L 982 998 Q 981 995 984 996 L 986 992 Q 987 985 984 983 L 979 979 Q 968 978 963 974 L 962 972 L 963 966 L 967 963 Q 977 961 982 966 Q 985 967 984 964 L 979 960 L 970 959 Z " /><path fill="rgb(254,254,254)" stroke="rgb(254,254,254)" stroke-width="1" opacity="1" d="M 820.5 963 L 835.5 963 L 842 966 Q 843.6 968.1 843 973.5 L 840.5 978 Q 834 982.5 821.5 981 L 819 978.5 L 819 964.5 L 820.5 963 Z M 822 965 L 822 978 L 836 978 L 837 977 L 839 977 Q 838 974 841 975 L 841 968 L 839 967 L 836 967 L 836 965 L 822 965 Z " /><path fill="rgb(254,254,254)" stroke="rgb(254,254,254)" stroke-width="1" opacity="1" d="M 685.5 965 L 693 979.5 L 694 985 L 691.5 986 L 678.5 986 L 676 985 Q 678.6 973.2 685.5 965 Z M 684 970 Q 685 974 682 973 L 681 977 Q 683 982 679 981 L 680 983 L 690 983 L 689 980 Q 691 974 687 975 L 686 972 Q 687 969 684 970 Z " /><path fill="rgb(254,254,254)" stroke="rgb(254,254,254)" stroke-width="1" opacity="1" d="M 880 965 L 883 966.5 L 890 984.5 L 888.5 986 L 874.5 986 L 872 985 L 880 965 Z M 882 970 Q 882 973 879 972 L 878 976 Q 880 981 876 980 L 877 983 L 887 983 L 886 981 L 886 978 L 884 978 L 884 973 L 882 973 L 882 970 Z " /><path fill="rgb(255,255,255)" stroke="rgb(255,255,255)" stroke-width="1" opacity="1" d="M 0 0 L 1600 0 L 1600 1566 L 0 1566 L 0 0 Z M 679 599 L 679 640 L 681 640 L 681 650 L 682 651 Q 681 657 684 657 L 684 663 L 686 663 L 687 669 Q 686 672 689 671 L 690 677 Q 689 680 692 679 L 692 682 L 694 682 L 695 686 Q 694 689 697 688 L 698 691 L 698 693 L 702 695 L 703 700 L 706 702 Q 705 704 708 703 L 708 706 L 710 706 L 710 708 L 713 708 L 714 711 L 717 712 Q 719 711 718 714 L 721 714 L 723 717 Q 727 716 726 719 L 730 720 Q 736 718 735 722 L 748 722 L 748 719 L 750 719 L 751 716 L 751 691 L 750 690 L 750 685 Q 747 686 748 682 L 746 682 L 745 679 Q 746 675 743 676 L 742 673 Q 739 674 740 671 L 738 671 L 737 666 L 734 665 Q 731 666 732 663 L 730 663 L 730 662 L 727 660 L 726 657 Q 723 658 724 655 L 722 655 L 721 653 L 723 653 Q 725 652 724 655 L 729 656 L 730 660 L 734 661 L 736 664 Q 740 663 738 668 L 741 669 Q 743 668 742 671 L 745 672 L 746 675 L 746 677 L 750 679 L 751 683 Q 750 686 753 685 L 754 689 Q 753 696 756 695 L 756 714 Q 753 713 754 717 L 760 716 L 762 716 L 764 712 L 766 712 L 766 710 L 769 708 L 770 704 L 770 701 L 772 701 L 772 695 L 774 695 L 774 680 L 772 679 L 772 673 L 770 673 L 769 668 Q 770 664 767 665 Q 768 661 766 660 Q 762 661 764 657 L 762 657 L 761 655 Q 762 652 760 653 L 758 650 L 754 649 L 753 645 L 751 644 Q 747 645 748 642 L 743 641 L 742 637 L 735 636 L 734 633 L 730 633 Q 731 630 727 631 L 727 629 L 724 628 Q 718 630 719 626 L 716 625 L 713 625 L 713 623 L 708 623 L 708 621 L 705 620 Q 701 621 702 618 L 695 617 L 694 613 L 692 612 L 689 612 Q 690 609 687 610 L 686 607 Q 687 604 684 605 L 684 601 Q 681 602 682 599 L 679 599 Z M 913 668 L 913 746 L 911 745 Q 907 746 908 743 L 905 743 L 905 741 L 902 740 Q 897 741 898 738 L 892 737 L 885 737 L 884 735 L 858 735 L 857 737 L 850 737 L 849 738 Q 843 736 844 740 L 839 741 Q 835 740 836 743 L 833 743 L 833 745 L 830 746 Q 827 745 828 748 L 823 749 L 822 753 L 820 754 Q 817 753 818 756 L 815 757 L 814 761 L 810 762 L 809 765 Q 810 768 807 767 L 806 770 Q 807 773 804 772 L 804 775 L 802 775 L 801 779 Q 802 782 799 781 L 798 787 L 798 789 L 796 790 L 796 797 L 794 797 L 794 812 L 793 813 Q 791 819 794 821 L 794 834 L 796 834 L 796 840 L 798 840 L 799 846 Q 797 851 801 850 L 802 854 Q 801 857 804 856 L 804 860 L 806 860 L 806 863 L 809 864 L 810 867 L 810 869 Q 813 868 812 871 L 815 873 Q 814 875 817 874 L 819 877 Q 821 876 820 879 L 823 881 Q 822 884 826 882 L 826 884 L 829 885 Q 832 884 831 887 L 835 888 L 838 888 Q 837 891 841 890 L 841 892 L 847 893 Q 851 892 850 895 L 860 895 L 861 896 L 878 896 L 879 895 L 887 895 L 887 893 L 894 893 L 895 892 L 897 892 L 898 890 L 902 890 L 902 888 L 906 887 L 908 887 Q 907 884 910 885 L 911 882 L 914 882 L 914 885 Q 917 884 916 888 L 918 888 L 919 892 L 958 892 L 958 669 L 958 668 L 913 668 Z M 1046 735 L 1046 737 L 1039 737 L 1038 738 Q 1030 737 1031 740 L 1028 741 L 1023 741 Q 1024 744 1020 743 L 1020 745 L 1017 746 Q 1014 745 1015 748 L 1012 749 Q 1009 748 1010 751 L 1007 751 L 1006 754 Q 1003 753 1004 756 L 1001 758 Q 1002 760 999 759 L 998 762 Q 995 761 996 764 L 994 764 L 993 769 L 990 771 Q 991 774 988 773 L 988 777 L 986 777 L 985 781 Q 986 784 983 783 L 982 787 Q 983 792 980 792 L 980 797 L 978 797 L 978 810 L 977 811 L 977 821 L 978 822 L 978 832 L 980 833 L 980 839 L 982 839 L 983 845 Q 982 848 985 847 L 986 851 Q 985 854 988 853 L 988 856 L 990 856 L 990 860 L 993 861 L 994 864 L 994 866 L 996 866 Q 995 869 998 868 L 999 871 L 1002 873 Q 1001 875 1004 874 L 1004 876 L 1008 877 Q 1010 876 1009 879 Q 1010 881 1014 880 L 1015 884 L 1019 885 Q 1023 884 1022 887 L 1026 888 L 1028 888 L 1029 890 L 1033 890 L 1033 892 L 1039 893 Q 1045 891 1044 895 L 1054 895 L 1055 896 L 1074 896 L 1075 895 L 1087 895 L 1087 893 L 1094 893 L 1095 892 Q 1100 893 1099 890 L 1103 890 L 1103 888 L 1109 887 Q 1112 888 1111 885 L 1118 884 L 1119 882 Q 1118 879 1122 880 L 1121 876 Q 1122 872 1119 873 Q 1120 869 1118 868 Q 1115 869 1116 865 L 1114 865 L 1113 861 Q 1114 857 1111 858 L 1110 852 L 1101 852 L 1100 853 Q 1094 852 1095 855 L 1089 855 L 1089 857 L 1082 857 L 1081 858 L 1058 858 L 1057 857 L 1050 857 Q 1051 854 1047 855 L 1047 853 L 1044 852 Q 1041 853 1042 850 L 1038 849 Q 1039 846 1036 847 L 1036 845 L 1031 844 L 1030 841 Q 1031 838 1028 839 L 1029 837 L 1132 837 L 1132 834 L 1134 834 L 1134 825 L 1135 824 L 1135 808 L 1134 807 L 1134 798 L 1132 797 L 1132 791 L 1130 791 L 1129 786 Q 1131 780 1127 781 L 1126 778 Q 1127 774 1124 775 L 1124 772 L 1122 772 L 1121 770 Q 1122 766 1119 767 L 1118 764 Q 1115 765 1116 761 L 1114 761 L 1113 759 Q 1114 756 1112 757 L 1110 754 L 1108 753 L 1105 753 L 1105 751 Q 1102 752 1103 750 Q 1102 747 1098 748 L 1097 745 Q 1093 746 1094 743 L 1090 743 L 1090 741 L 1087 740 Q 1083 741 1084 738 L 1078 737 Q 1070 738 1071 735 L 1046 735 Z M 458 740 Q 457 744 460 744 L 460 749 L 462 749 L 463 755 Q 461 760 465 759 L 466 766 L 466 770 Q 470 769 468 775 L 470 775 L 471 782 Q 469 787 473 786 L 474 792 L 474 797 L 476 797 L 476 802 L 478 802 L 479 808 Q 477 814 481 813 L 482 819 Q 481 824 484 824 L 484 829 L 486 829 L 487 835 Q 485 840 489 839 L 490 846 L 490 850 Q 494 849 492 855 L 494 855 L 495 862 Q 493 867 497 866 L 498 872 L 498 877 L 500 877 L 500 882 L 502 882 L 503 888 Q 502 892 504 892 L 561 892 L 562 887 L 562 880 Q 566 881 564 876 L 566 876 L 567 871 Q 566 863 569 864 L 570 860 Q 569 854 572 855 L 572 848 L 574 848 L 575 844 Q 573 838 577 839 L 578 834 L 578 828 L 580 828 Q 579 822 582 823 L 582 814 L 583 814 L 583 823 L 585 823 L 586 829 L 586 834 L 588 834 L 588 839 L 590 839 L 591 845 Q 589 851 593 850 L 594 856 Q 593 861 596 861 L 596 866 L 598 866 L 599 872 Q 597 877 601 876 L 602 883 L 602 887 L 604 887 L 605 892 L 662 892 L 663 887 Q 661 881 665 882 L 666 877 L 666 871 L 668 871 L 668 866 L 670 866 L 671 861 Q 669 855 673 856 L 674 850 L 674 846 Q 678 846 676 840 L 678 840 L 679 834 Q 677 828 681 829 L 682 824 L 682 818 L 684 818 L 684 813 L 686 813 L 687 808 Q 685 801 689 802 L 690 797 Q 689 791 692 792 L 692 786 L 694 786 L 695 781 Q 693 775 697 776 L 698 770 L 698 766 Q 702 766 700 760 L 702 760 L 703 754 Q 701 748 705 749 L 706 740 L 661 740 L 658 741 L 658 748 L 657 749 Q 659 754 655 753 L 654 760 Q 655 765 652 765 L 652 770 L 650 770 L 649 776 Q 651 782 647 781 L 646 787 L 646 793 Q 642 792 644 797 L 642 797 L 642 804 L 641 805 Q 643 810 639 809 L 638 816 L 638 820 Q 635 819 636 825 L 634 825 L 633 832 Q 634 837 631 837 L 631 842 L 630 842 L 630 839 L 628 839 L 628 833 L 626 833 L 626 827 L 625 826 Q 627 820 623 821 L 622 815 Q 623 809 620 810 L 620 804 L 618 804 L 618 798 L 617 797 Q 618 792 615 793 L 615 787 L 614 786 Q 615 780 612 781 L 612 775 L 610 775 L 609 769 Q 611 763 607 764 L 607 758 L 606 757 Q 607 752 604 753 L 604 746 L 602 746 L 602 740 L 562 740 L 561 747 Q 563 752 559 751 L 558 758 Q 559 763 556 763 L 556 769 L 554 769 L 553 776 Q 555 781 551 780 L 550 787 Q 551 792 548 792 L 548 797 L 546 797 L 546 804 L 545 805 Q 547 810 543 809 L 542 816 Q 543 821 540 821 L 540 826 L 538 826 L 537 832 L 537 837 Q 534 836 535 842 L 534 842 L 534 836 L 532 836 L 532 831 L 530 831 L 529 825 Q 531 819 527 820 L 527 814 L 526 813 Q 527 808 524 809 L 524 802 L 522 802 L 521 797 Q 523 790 519 791 L 518 786 L 518 780 L 516 780 L 516 775 L 514 775 L 513 769 Q 515 763 511 764 L 511 758 L 510 757 Q 511 752 508 753 L 508 746 L 506 746 L 506 742 L 505 740 L 458 740 Z M 730 740 L 730 892 L 731 892 L 775 892 L 775 741 L 775 740 L 730 740 Z M 614 957 L 614 1000 L 622 1000 L 622 1000 L 622 974 L 623 974 Q 622 976 625 975 L 626 980 L 630 981 L 631 984 Q 630 987 633 986 L 635 989 Q 637 988 636 991 L 638 991 L 639 995 Q 638 997 641 996 L 642 1000 L 650 1000 L 650 1000 L 650 957 L 645 957 L 644 958 L 644 986 L 643 986 Q 640 985 641 981 L 638 980 L 634 974 L 631 972 L 630 970 L 630 967 Q 627 968 628 965 L 625 964 Q 626 961 623 962 L 622 959 L 622 957 L 614 957 Z M 681 957 Q 683 962 679 961 L 678 965 L 678 969 Q 675 968 676 972 L 674 972 L 673 976 Q 674 979 671 978 L 670 982 L 670 986 Q 667 985 668 989 L 666 989 L 665 994 Q 666 997 663 996 L 663 1000 Q 670 1001 673 999 L 674 991 L 695 991 L 695 994 L 697 994 L 698 998 L 699 1000 L 708 1000 Q 709 996 706 997 L 705 994 Q 706 990 703 991 L 702 988 L 702 985 L 700 985 L 700 980 L 698 980 L 697 977 Q 698 972 695 973 L 694 970 L 694 967 L 692 967 L 692 962 L 690 962 L 689 959 L 689 957 L 681 957 Z M 716 957 L 716 965 L 729 965 L 729 966 L 729 1000 L 737 1000 L 737 1000 L 737 965 L 751 965 L 751 958 L 751 957 L 716 957 Z M 762 957 L 762 991 Q 765 990 764 994 L 766 994 L 767 999 L 771 1000 Q 776 998 775 1002 L 786 1002 L 786 1000 L 793 999 L 795 996 Q 797 997 796 994 L 798 994 L 799 989 L 799 958 L 799 957 L 791 957 L 791 988 L 790 989 L 790 991 Q 787 990 788 993 L 785 994 Q 778 996 777 993 L 774 993 Q 775 990 772 991 L 772 988 L 770 988 L 770 957 L 762 957 Z M 814 957 L 814 1000 L 822 1000 L 822 986 L 831 986 Q 830 989 833 988 L 835 992 Q 837 991 836 994 L 838 994 L 839 999 L 842 1000 L 850 1000 L 850 998 L 847 996 L 846 993 Q 847 990 844 991 L 844 989 L 842 989 L 842 987 L 839 985 L 842 983 Q 845 984 844 981 L 847 980 Q 846 977 849 978 L 849 966 L 847 965 L 846 961 L 843 961 Q 843 958 838 959 L 838 957 L 814 957 Z M 878 957 Q 879 960 876 959 L 876 962 L 874 962 L 873 968 Q 874 971 871 970 L 870 974 L 870 977 Q 867 976 868 980 L 866 980 L 865 986 Q 866 989 863 988 L 862 992 Q 863 995 860 994 L 860 997 L 858 997 L 858 1000 L 868 1000 L 868 997 L 870 997 L 871 991 L 890 991 L 891 992 L 892 992 L 892 996 Q 895 995 894 999 L 896 1000 L 903 1000 L 902 996 Q 903 992 900 993 L 900 989 L 898 989 L 897 986 Q 899 980 895 981 L 894 978 Q 895 974 892 975 L 892 972 L 890 972 L 889 969 Q 891 963 887 964 L 886 961 L 886 957 L 878 957 Z M 914 957 L 914 1000 L 945 1000 L 945 995 L 945 994 L 922 994 L 922 958 L 922 957 L 914 957 Z M 964 957 Q 965 960 961 959 L 961 961 L 958 963 Q 959 966 956 965 L 956 975 L 958 975 L 959 980 L 963 981 Q 967 980 966 983 L 977 984 L 978 987 Q 977 989 980 988 Q 981 992 978 991 L 977 994 L 968 994 L 967 993 L 964 993 L 962 989 L 956 989 L 956 993 Q 953 992 954 996 L 957 997 Q 959 996 958 999 L 962 1000 Q 967 998 966 1002 L 978 1002 L 978 1000 L 985 999 L 986 997 Q 985 993 988 994 L 988 984 L 986 983 L 985 980 Q 982 981 983 978 L 980 977 Q 974 978 975 975 L 969 975 L 969 973 L 964 972 L 964 968 L 966 968 L 967 965 L 977 965 L 977 967 L 981 968 Q 985 969 986 967 L 986 961 Q 982 962 983 959 L 980 959 L 980 957 L 964 957 Z " /><path fill="rgb(255,255,255)" stroke="rgb(255,255,255)" stroke-width="1" opacity="1" d="M 871.5 775 L 887 776 L 887 778 L 891.5 778 L 892 780 L 894.5 780 L 898 781 Q 896.9 783.7 899.5 783 L 902 784 L 903 788 L 906 789.5 Q 905 793.3 908 792 L 908 796 L 910 796 L 910 799.5 L 911 800.5 L 911 808 L 913 808.5 L 913 821 L 911 821.5 L 911 828.5 L 910 834 L 908 834 Q 909.3 838.1 906 837 L 906 840.5 L 903 842 L 901.5 845 L 900 845 L 900 847 Q 897.3 845.9 898 848.5 L 894 850 Q 895.3 853.3 890.5 852 L 886 853 L 885.5 855 L 865 855 Q 866.3 852 862.5 853 L 858 852 Q 859.3 849 855.5 850 L 854 847 Q 851 848 852 845 L 849 845 Q 850.5 841.2 847.5 842 L 846 839 L 844 839 L 844 836 Q 841.3 837.1 842 834.5 L 841 829 Q 837.7 830.3 839 825.5 L 838 824.5 L 838 807.5 L 839 802 Q 842.7 803.4 841 797.5 L 842 794 L 846 792 L 846 789.5 L 849 788 L 850 784 L 855 783 Q 853.9 780.3 856.5 781 L 860 780 L 860 778 L 865 778 L 865 776 L 870.5 776 L 871.5 775 Z " /><path fill="rgb(255,255,255)" stroke="rgb(255,255,255)" stroke-width="1" opacity="1" d="M 1054.5 775 L 1068 776 L 1068 778 L 1071 778 Q 1069.9 780.7 1072.5 780 L 1076 781 Q 1074.9 783.7 1077.5 783 L 1079 786 Q 1081.7 784.9 1081 787.5 L 1082 791 L 1086 792 L 1087 799 Q 1090.3 797.9 1089 802 L 1025.5 802 L 1025 799.5 L 1026 796 L 1028 796 L 1028 792 L 1029.5 792 L 1031 788 Q 1033.7 789.1 1033 786.5 L 1034 784 L 1039 783 Q 1037.9 780.3 1040.5 781 L 1044 780 L 1044 778 Q 1048.1 779.3 1047 776 L 1053.5 776 L 1054.5 775 Z " /><path fill="rgb(255,255,255)" stroke="rgb(255,255,255)" stroke-width="1" opacity="1" d="M 822 965 L 835.5 965 L 836 967 L 838.5 967 L 841 968 L 841 975 Q 838 974 839 977 L 836.5 977 L 835.5 978 L 822 978 L 822 965 Z " /><path fill="rgb(255,255,255)" stroke="rgb(255,255,255)" stroke-width="1" opacity="1" d="M 684 970 Q 686.7 968.9 686 971.5 L 687 975 Q 690.7 973.6 689 979.5 L 690 983 L 679.5 983 L 679 981 Q 682.7 982.4 681 976.5 L 682 973 Q 685.3 974.1 684 970 Z " /><path fill="rgb(255,255,255)" stroke="rgb(255,255,255)" stroke-width="1" opacity="1" d="M 881.5 970 L 882 973 L 884 973 L 884 977.5 L 886 978 L 886 980.5 L 887 983 L 876.5 983 L 876 980 Q 879.7 981.4 878 975.5 L 879 972 Q 881.8 973 881.5 970 Z " /></svg>